#N canvas 641 288 434 374 12;
#X obj 155 148 *~ 6;
#X obj 155 172 -~ 15;
#X obj 138 196 *~;
#X obj 138 220 +~ 10;
#X obj 119 244 *~;
#X obj 82 61 inlet~;
#X obj 119 292 outlet~;
#X text 195 147 6x;
#X text 199 171 6x - 15;
#X text 182 219 x * (6x - 15) + 10;
#X text 168 195 x * (6x - 15);
#X text 140 60 y = x^3 * (x * (6x - 15) + 10);
#X obj 83 148 *~;
#X obj 64 172 *~;
#X text 95 171 x^3;
#X text 150 243 x^3 * (x * (6x - 15) + 10);
#X connect 0 0 1 0;
#X connect 1 0 2 1;
#X connect 2 0 3 0;
#X connect 3 0 4 1;
#X connect 4 0 6 0;
#X connect 5 0 0 0;
#X connect 5 0 2 0;
#X connect 5 0 12 1;
#X connect 5 0 12 0;
#X connect 5 0 13 0;
#X connect 12 0 13 1;
#X connect 13 0 4 0;
