#N canvas 534 -923 912 604 12;
#X obj 50 45 inlet~;
#X obj 200 515 outlet~;
#X obj 201 474 +~;
#X obj 434 387 +~;
#X text 101 44 hash;
#X obj 50 117 wrap~;
#X obj 50 141 *~ 16;
#X obj 202 45 inlet~;
#X obj 435 45 inlet~;
#X obj 669 45 inlet~;
#X text 253 44 x;
#X text 486 44 y;
#X text 720 44 z;
#X obj 202 299 *~;
#X obj 435 299 *~;
#X obj 669 299 *~;
#X obj 221 267 tabread~ \$1-gradients-x;
#X obj 453 267 tabread~ \$1-gradients-y;
#X obj 688 267 tabread~ \$1-gradients-z;
#X obj 50 93 *~ 0.0625;
#X text 122 92 /~ 16;
#X connect 0 0 19 0;
#X connect 2 0 1 0;
#X connect 3 0 2 1;
#X connect 5 0 6 0;
#X connect 6 0 16 0;
#X connect 6 0 17 0;
#X connect 6 0 18 0;
#X connect 7 0 13 0;
#X connect 8 0 14 0;
#X connect 9 0 15 0;
#X connect 13 0 2 0;
#X connect 14 0 3 0;
#X connect 15 0 3 1;
#X connect 16 0 13 1;
#X connect 17 0 14 1;
#X connect 18 0 15 1;
#X connect 19 0 5 0;
