#N canvas 371 79 711 298 12;
#X obj 54 52 inlet~;
#X obj 141 52 inlet~;
#X obj 225 52 inlet~;
#X obj 139 213 outlet~;
#X obj 140 164 +~;
#X obj 226 110 -~;
#X obj 159 137 *~;
#X text 51 29 weight;
#X text 142 29 v1;
#X text 226 29 v2;
#X text 316 29 linear interpolation from v1 to v2 by weight 0..1;
#X connect 0 0 6 0;
#X connect 1 0 5 1;
#X connect 1 0 4 0;
#X connect 2 0 5 0;
#X connect 4 0 3 0;
#X connect 5 0 6 1;
#X connect 6 0 4 1;
