#N canvas 367 45 1145 834 12;
#X obj 49 66 *~ 256;
#X obj 52 760 dac~;
#N canvas 0 50 450 250 (subpatch) 0;
#X array \$0-voices 1024 float 0;
#X coords 0 1 1023 -1 512 256 1 0 0;
#X restore 562 518 graph;
#X obj 665 399 tgl 19 1 empty empty empty 0 -10 0 12 #fcfcfc #000000 #000000 1 1;
#X obj 49 42 phasor~ 2;
#X obj 123 66 *~ 256;
#X obj 212 66 *~ 256;
#X obj 452 346 cos~;
#X obj 514 317 wrap~;
#X obj 514 346 cos~;
#X obj 648 66 *~ 256;
#X obj 514 293 +~ 0.25;
#X obj 452 233 phasor~;
#X obj 453 66 *~ 256;
#X obj 452 370 *~;
#X obj 514 370 *~;
#X obj 50 223 *~;
#X obj 103 273 *~ 256;
#X obj 188 273 *~ 256;
#X obj 279 273 *~ 256;
#X obj 104 440 *~;
#X obj 358 321 *~ -1;
#X obj 358 249 wrap~;
#X obj 648 164 +~ 0.1;
#X obj 453 441 perlin_3d~ 12 0.3 normalize;
#X obj 648 42 phasor~ 0.0051;
#X obj 211 396 clip~ 0 0.24;
#X obj 279 249 phasor~ 13;
#X obj 188 249 phasor~ 13.3;
#X obj 453 42 phasor~ 0.0081;
#X obj 648 140 perlin_3d~ 4 0.6;
#X obj 965 66 *~ 256;
#X obj 965 164 *~ 0.5;
#X obj 965 188 +~ 0.5;
#X obj 965 140 perlin_3d~ 6 0.5;
#X obj 773 66 *~ 256;
#X obj 453 188 +~;
#X obj 453 164 *~;
#X obj 773 188 clip~ -1 1;
#X obj 773 140 perlin_3d~ 5 0.3 normalize;
#X obj 773 281 *~ 330;
#X obj 773 164 *~ 500;
#X obj 102 649 *~ -1;
#X obj 773 42 phasor~ 0.0007;
#X obj 453 493 /~;
#X obj 915 323 +~ 1;
#X obj 915 347 /~ 2;
#X obj 915 371 +~ 1;
#X obj 74 672 rev3~ 100 82 800 100;
#X obj 358 225 +~ 0.5;
#X obj 104 249 phasor~ 16;
#X obj 358 297 pow~ 0.8;
#X obj 358 345 +~ 0.3;
#X obj 291 114 *~ -1;
#X obj 291 90 pow~ 0.7;
#X obj 290 66 lop~ 200;
#X obj 358 273 lop~ 200;
#X obj 665 459 tabwrite~ \$0-voices;
#X obj 665 430 metro 60;
#X obj 358 200 *~ 3;
#X obj 291 138 +~ 0.8;
#X obj 291 162 clip~ 0 1.2;
#X obj 123 42 phasor~ 1.1;
#X obj 212 42 phasor~ 1;
#X obj 290 42 phasor~ 0.7;
#X obj 51 502 *~ 1;
#X obj 965 42 phasor~ 0.0181;
#X obj 649 233 clip~ 0 4;
#X obj 648 188 *~ 4;
#X obj 576 370 *~ 256;
#X obj 105 477 tgl 19 0 empty empty play 24 10 0 12 #c6ffc7 #000000 #000000 0 1;
#X obj 105 525 line~;
#X obj 51 572 *~;
#X obj 773 233 *~ 0.5;
#X obj 773 257 +~ 0.9;
#X obj 106 549 *~ 0.6;
#X obj 105 501 pack f 200;
#X obj 453 140 perlin_3d~ 3 0.4 normalize;
#X obj 104 347 perlin_3d~ 4 0.7 normalize;
#X obj 50 140 perlin_3d~ 4 0.7 normalize;
#X obj 576 346 phasor~ 0.01;
#X text 357 67 rhythm loop;
#X text 248 201 3x base rhythm;
#X text 305 227 offset;
#X text 110 368 "hihat";
#X text 56 162 "bassdrum";
#X text 341 125 envelope;
#X text 821 253 switching between higher and lower pitch, f 24;
#X text 651 119 envelope, f 24;
#X text 459 119 pitch variation, f 24;
#X text 781 119 "voice switcher", f 24;
#X text 970 90 formants via persistance variation, f 19;
#X text 952 340 increase lower pitch volume, f 15;
#X connect 0 0 79 0;
#X connect 3 0 58 0;
#X connect 4 0 0 0;
#X connect 5 0 79 1;
#X connect 6 0 79 2;
#X connect 7 0 14 0;
#X connect 8 0 9 0;
#X connect 9 0 15 0;
#X connect 10 0 30 0;
#X connect 11 0 8 0;
#X connect 12 0 7 0;
#X connect 12 0 11 0;
#X connect 13 0 77 0;
#X connect 14 0 24 0;
#X connect 15 0 24 1;
#X connect 16 0 65 0;
#X connect 17 0 78 0;
#X connect 18 0 78 1;
#X connect 19 0 78 2;
#X connect 20 0 65 0;
#X connect 21 0 52 0;
#X connect 22 0 56 0;
#X connect 23 0 68 0;
#X connect 24 0 44 0;
#X connect 24 0 57 0;
#X connect 25 0 10 0;
#X connect 26 0 20 1;
#X connect 27 0 19 0;
#X connect 28 0 18 0;
#X connect 29 0 13 0;
#X connect 30 0 23 0;
#X connect 31 0 34 0;
#X connect 32 0 33 0;
#X connect 33 0 24 3;
#X connect 34 0 32 0;
#X connect 35 0 39 0;
#X connect 36 0 12 0;
#X connect 37 0 36 0;
#X connect 38 0 45 0;
#X connect 38 0 73 0;
#X connect 39 0 41 0;
#X connect 40 0 37 1;
#X connect 40 0 36 1;
#X connect 41 0 38 0;
#X connect 42 0 48 1;
#X connect 43 0 35 0;
#X connect 44 0 72 0;
#X connect 45 0 46 0;
#X connect 46 0 47 0;
#X connect 47 0 44 1;
#X connect 48 0 1 0;
#X connect 48 1 1 1;
#X connect 49 0 22 0;
#X connect 50 0 17 0;
#X connect 51 0 21 0;
#X connect 51 0 78 3;
#X connect 52 0 26 0;
#X connect 53 0 60 0;
#X connect 54 0 53 0;
#X connect 54 0 79 3;
#X connect 55 0 54 0;
#X connect 56 0 51 0;
#X connect 58 0 57 0;
#X connect 59 0 49 0;
#X connect 60 0 61 0;
#X connect 61 0 16 1;
#X connect 62 0 5 0;
#X connect 63 0 6 0;
#X connect 64 0 55 0;
#X connect 64 0 59 0;
#X connect 65 0 72 0;
#X connect 66 0 31 0;
#X connect 67 0 15 1;
#X connect 67 0 14 1;
#X connect 68 0 67 0;
#X connect 69 0 24 2;
#X connect 70 0 76 0;
#X connect 71 0 75 0;
#X connect 72 0 1 0;
#X connect 72 0 1 1;
#X connect 72 0 42 0;
#X connect 72 0 48 0;
#X connect 73 0 74 0;
#X connect 74 0 40 0;
#X connect 75 0 72 1;
#X connect 76 0 71 0;
#X connect 77 0 37 0;
#X connect 78 0 20 0;
#X connect 79 0 16 0;
#X connect 80 0 69 0;
