#N canvas 290 143 1344 715 12;
#X text 231 46 y;
#X obj 577 144 loadbang;
#X obj 453 288 \$2;
#X obj 453 312 sel 0;
#X msg 453 336 0.5;
#X text 133 46 x;
#X text 484 287 persistance;
#X obj 595 288 symbol \$3;
#X obj 595 312 sel normalize;
#X obj 177 47 inlet~;
#X text 723 124 controls;
#X obj 58 636 outlet~;
#X obj 419 47 inlet~;
#X text 471 46 persistance;
#X obj 723 147 route persistance seed;
#X msg 723 288 \$1 20;
#X obj 723 312 line~;
#X text 954 263 create/reseed;
#X obj 297 47 inlet~;
#X text 351 46 z;
#X obj 57 47 inlet~ fwd;
#X text 451 359 default if inlet~ not connected;
#X obj 57 426 clone \$1 perlin.3d~.cl \$0, f 52;
#N canvas 753 64 500 758 create_permutation 0;
#X obj 96 378 until;
#X obj 96 347 t f b;
#X msg 140 378 0;
#X obj 96 423 f;
#X obj 126 423 + 1;
#X obj 96 447 t f f;
#X obj 50 180 t b b b;
#X obj 50 64 route bang seed;
#X obj 50 39 inlet;
#X text 205 101 set seed and recreate table;
#X text 249 576 shuffle values;
#X text 227 668 duplicate values;
#N canvas 1261 110 601 741 shuffle 0;
#X obj 78 386 until;
#X obj 78 494 t f f;
#X msg 128 328 0;
#X obj 78 410 t b b;
#X obj 110 433 f;
#X obj 140 433 + 1;
#X obj 78 578 t b f;
#X msg 78 601 0;
#X obj 110 540 array set \$0-output;
#X obj 55 38 inlet;
#X obj 317 227 array define \$0-source;
#X obj 277 161 list length;
#X obj 317 273 array define \$0-output;
#X msg 277 185 resize \$1;
#X obj 317 250 array define \$0-probabilities;
#X obj 78 363 array size \$0-probabilities;
#X obj 78 471 array random \$0-probabilities;
#X obj 78 624 array set \$0-probabilities;
#X obj 95 184 array set \$0-source;
#X obj 55 662 array get \$0-output;
#X obj 55 686 outlet;
#X obj 110 517 array get \$0-source;
#X obj 55 142 t b b l l;
#X obj 55 309 t b b b;
#X msg 75 239 const 1;
#X obj 75 263 s \$0-probabilities;
#X obj 189 38 inlet;
#X text 98 37 list;
#X text 233 37 seed;
#X connect 0 0 3 0;
#X connect 1 0 6 0;
#X connect 1 1 21 0;
#X connect 2 0 4 1;
#X connect 3 0 16 0;
#X connect 3 1 4 0;
#X connect 4 0 5 0;
#X connect 4 0 8 1;
#X connect 5 0 4 1;
#X connect 6 0 7 0;
#X connect 6 1 17 1;
#X connect 7 0 17 0;
#X connect 9 0 22 0;
#X connect 11 0 13 0;
#X connect 13 0 10 0;
#X connect 13 0 14 0;
#X connect 13 0 12 0;
#X connect 15 0 0 0;
#X connect 16 0 1 0;
#X connect 19 0 20 0;
#X connect 21 0 8 0;
#X connect 22 0 23 0;
#X connect 22 1 24 0;
#X connect 22 2 18 0;
#X connect 22 3 11 0;
#X connect 23 0 19 0;
#X connect 23 1 15 0;
#X connect 23 2 2 0;
#X connect 24 0 25 0;
#X connect 26 0 16 0;
#X restore 73 600 pd shuffle;
#X obj 96 251 array size \$0-permutation;
#X obj 96 275 / 2;
#X text 127 276 half table size;
#X obj 96 311 t f f, f 47;
#X obj 50 692 array set \$0-permutation;
#X obj 96 479 array set \$0-permutation;
#X obj 73 624 array set \$0-permutation;
#X obj 73 576 array get \$0-permutation;
#X text 158 423 create range;
#X text 274 479 write range;
#X obj 50 668 array get \$0-permutation;
#X msg 193 535 seed \$1;
#X obj 161 102 t b f;
#X connect 0 0 3 0;
#X connect 1 0 0 0;
#X connect 1 1 2 0;
#X connect 2 0 3 1;
#X connect 3 0 4 0;
#X connect 3 0 5 0;
#X connect 4 0 3 1;
#X connect 5 0 18 0;
#X connect 5 1 18 1;
#X connect 6 0 23 0;
#X connect 6 1 20 0;
#X connect 6 2 13 0;
#X connect 7 0 6 0;
#X connect 7 1 25 0;
#X connect 8 0 7 0;
#X connect 12 0 19 0;
#X connect 13 0 14 0;
#X connect 14 0 16 0;
#X connect 16 0 1 0;
#X connect 16 1 20 1;
#X connect 16 1 17 1;
#X connect 16 1 23 1;
#X connect 20 0 12 0;
#X connect 23 0 17 0;
#X connect 24 0 12 1;
#X connect 25 0 6 0;
#X connect 25 1 24 0;
#X restore 798 264 pd create_permutation;
#N canvas 794 233 650 401 create_easing 0;
#X obj 45 144 until;
#X msg 92 144 0;
#X obj 45 182 f;
#X obj 75 182 + 1;
#X obj 45 206 t f f;
#X obj 45 30 inlet;
#X obj 45 110 t f b f, f 14;
#X obj 45 276 expr $f1 * $f1 * $f1 * ($f1 * ($f1 * 6 - 15) + 10);
#X obj 45 252 /;
#X obj 45 72 array size \$0-ease;
#X obj 45 324 tabwrite \$0-ease;
#X connect 0 0 2 0;
#X connect 1 0 2 1;
#X connect 2 0 3 0;
#X connect 2 0 4 0;
#X connect 3 0 2 1;
#X connect 4 0 8 0;
#X connect 4 1 10 1;
#X connect 5 0 9 0;
#X connect 6 0 0 0;
#X connect 6 1 1 0;
#X connect 6 2 8 1;
#X connect 7 0 10 0;
#X connect 8 0 7 0;
#X connect 9 0 6 0;
#X restore 798 288 pd create_easing;
#X obj 577 168 t b b b b b;
#X obj 468 493 max~ 1;
#X msg 595 426 0;
#X obj 467 466 pow~ -1;
#X obj 57 538 *~;
#X obj 1076 107 array define \$0-gradients-x 16;
#X obj 1076 137 array define \$0-gradients-y 16;
#X obj 1076 167 array define \$0-gradients-z 16;
#N canvas 799 356 426 342 create_gradients 0;
#X obj 39 42 inlet;
#X obj 39 66 t b b b;
#X obj 85 145 array set \$0-gradients-x;
#X obj 62 205 array set \$0-gradients-y;
#X obj 39 265 array set \$0-gradients-z;
#X msg 85 121 1 -1 1 -1 1 -1 1 -1 0 0 0 0 1 -1 0 0;
#X msg 62 181 1 1 -1 -1 0 0 0 0 1 -1 1 -1 1 1 -1 -1;
#X msg 39 241 0 0 0 0 1 1 -1 -1 1 1 -1 -1 0 0 1 -1;
#X text 118 42 hardcode gradients to tables;
#X connect 0 0 1 0;
#X connect 1 0 7 0;
#X connect 1 1 6 0;
#X connect 1 2 5 0;
#X connect 5 0 2 0;
#X connect 6 0 3 0;
#X connect 7 0 4 0;
#X restore 798 312 pd create_gradients;
#X obj 1070 47 array define \$0-permutation 512;
#X obj 1112 77 array define \$0-ease 8192;
#X obj 798 177 route float bang;
#N canvas 709 295 617 434 pseudo_random_seed 0;
#X obj 70 106 pdcontrol;
#X obj 70 129 list fromsymbol;
#X obj 70 198 until;
#X obj 70 152 t l l;
#X obj 70 175 list length;
#X obj 70 221 list store;
#X obj 70 244 list split 1;
#X obj 98 290 f;
#X obj 70 290 +;
#X msg 70 83 dir;
#X obj 47 337 f;
#X obj 47 60 t b b b;
#X obj 70 267 + \$0;
#X obj 70 313 mod 65536;
#X obj 47 36 inlet;
#X obj 47 361 outlet;
#X text 186 130 directory as symbols;
#X text 106 267 current local index;
#X connect 0 0 1 0;
#X connect 1 0 3 0;
#X connect 2 0 5 0;
#X connect 3 0 4 0;
#X connect 3 1 5 1;
#X connect 4 0 2 0;
#X connect 5 0 6 0;
#X connect 6 0 12 0;
#X connect 6 1 5 1;
#X connect 7 0 8 1;
#X connect 8 0 7 0;
#X connect 8 0 13 0;
#X connect 9 0 0 0;
#X connect 10 0 15 0;
#X connect 11 0 10 0;
#X connect 11 1 9 0;
#X connect 12 0 8 0;
#X connect 13 0 10 1;
#X connect 14 0 11 0;
#X restore 852 202 pd pseudo_random_seed;
#X msg 798 240 seed \$1;
#X connect 1 0 25 0;
#X connect 2 0 3 0;
#X connect 3 0 4 0;
#X connect 3 1 12 0;
#X connect 4 0 12 0;
#X connect 7 0 8 0;
#X connect 8 0 27 0;
#X connect 9 0 22 1;
#X connect 12 0 22 3;
#X connect 14 0 15 0;
#X connect 14 1 36 0;
#X connect 15 0 16 0;
#X connect 16 0 22 3;
#X connect 18 0 22 2;
#X connect 20 0 22 0;
#X connect 20 1 14 0;
#X connect 22 0 29 0;
#X connect 22 1 28 0;
#X connect 25 0 2 0;
#X connect 25 1 7 0;
#X connect 25 2 33 0;
#X connect 25 3 24 0;
#X connect 25 4 23 0;
#X connect 26 0 29 1;
#X connect 27 0 26 1;
#X connect 28 0 26 0;
#X connect 29 0 11 0;
#X connect 36 0 38 0;
#X connect 36 1 37 0;
#X connect 37 0 38 0;
#X connect 38 0 23 0;
