#N canvas 611 152 450 397 12;
#X obj 65 70 inlet~;
#X obj 65 298 outlet~;
#X obj 66 228 tabread~ \$1;
#X text 157 228 read table name from first argument;
#X obj 66 204 *~;
#X obj 84 147 loadbang;
#X obj 84 171 array size \$1;
#X connect 0 0 4 0;
#X connect 2 0 1 0;
#X connect 4 0 2 0;
#X connect 5 0 6 0;
#X connect 6 0 4 1;
