#N canvas 402 43 1133 970 12;
#X obj 59 427 mtof~;
#X obj 58 913 dac~;
#X obj 58 824 *~;
#X obj 83 799 tgl 19 0 empty empty play 24 10 0 12 #c6ffc7 #000000 #000000 0 1;
#X obj 123 255 hsl 162 19 0 2000 0 1 empty empty empty -2 -10 0 12 #fcfcfc #000000 #000000 1000 1;
#X floatatom 120 279 5 0 0 0 - - - 0;
#X obj 140 664 *~ 256;
#X obj 60 465 phasor~;
#X obj 60 584 cos~;
#X obj 108 505 +~ 0.25;
#X obj 108 529 wrap~;
#X obj 108 553 cos~;
#X obj 59 641 *~;
#X obj 107 640 *~;
#X obj 140 640 phasor~ 0.01;
#X obj 167 426 pow~ 7;
#X obj 61 73 *~ 256;
#X msg 109 96 0.5;
#X obj 61 180 *~ 6;
#X obj 61 132 perlin.3d~ 3 0.7;
#X obj 167 451 *~ 0.2;
#X obj 167 475 +~ 0.3;
#X obj 404 427 mtof~;
#X obj 468 255 hsl 162 19 0 2000 0 1 empty empty empty -2 -10 0 12 #fcfcfc #000000 #000000 200 1;
#X floatatom 465 279 5 0 0 0 - - - 0;
#X obj 485 664 *~ 256;
#X obj 405 465 phasor~;
#X obj 405 584 cos~;
#X obj 453 505 +~ 0.25;
#X obj 453 529 wrap~;
#X obj 453 553 cos~;
#X obj 404 641 *~;
#X obj 452 640 *~;
#X obj 520 426 pow~ 7;
#X obj 406 73 *~ 256;
#X msg 454 96 0.5;
#X obj 520 451 *~ 0.2;
#X obj 520 475 +~ 0.3;
#X obj 757 427 mtof~;
#X obj 821 255 hsl 162 19 0 2000 0 1 empty empty empty -2 -10 0 12 #fcfcfc #000000 #000000 3800 1;
#X floatatom 818 279 5 0 0 0 - - - 0;
#X obj 838 664 *~ 256;
#X obj 758 465 phasor~;
#X obj 758 584 cos~;
#X obj 806 505 +~ 0.25;
#X obj 806 529 wrap~;
#X obj 806 553 cos~;
#X obj 757 641 *~;
#X obj 805 640 *~;
#X obj 867 426 pow~ 7;
#X obj 759 73 *~ 256;
#X msg 807 96 0.5;
#X obj 867 451 *~ 0.2;
#X obj 218 426 *~ 256;
#X msg 270 456 0.5;
#X obj 218 485 perlin.3d~ 3 0.7;
#X obj 218 402 phasor~ 0.004;
#X obj 218 551 clip~ 0 2;
#X obj 572 425 *~ 256;
#X msg 624 456 0.5;
#X obj 572 484 perlin.3d~ 3 0.7;
#X obj 572 550 clip~ 0 2;
#X obj 918 426 *~ 256;
#X msg 970 456 0.5;
#X obj 918 485 perlin.3d~ 3 0.7;
#X obj 918 551 clip~ 0 2;
#X obj 61 49 phasor~ 0.0012;
#X obj 485 640 phasor~ 0.011;
#X obj 757 403 +~ 26;
#X obj 107 597 *~ 2;
#X obj 105 853 *~ -1;
#X obj 59 403 +~ 62;
#X obj 406 132 perlin.3d~ 4 0.7;
#X obj 759 132 perlin.3d~ 2 0.7;
#X obj 760 48 phasor~ 0.0003;
#X obj 805 597 *~ 2;
#X obj 838 640 phasor~ 0.03;
#X obj 918 402 phasor~ 0.003;
#X obj 404 697 perlin.3d~ 12 0.7;
#X obj 757 697 perlin.3d~ 8 0.7;
#X obj 405 180 *~ 8;
#X obj 759 180 *~ 4;
#X obj 867 475 +~ 0.2;
#X obj 58 772 *~ 0.3;
#X obj 404 403 +~ 74;
#X obj 452 597 *~ 1.2;
#X obj 573 587 *~ 2;
#X obj 219 588 *~ 3;
#X obj 919 588 *~ 2.5;
#X obj 218 527 +~ 0.1;
#X obj 918 527 +~ 0.3;
#X obj 59 697 perlin.3d~ 5 0.4;
#X obj 757 724 *~ 2.2;
#X obj 867 77 loadbang;
#X obj 1027 437 loadbang;
#X obj 80 876 rev3~ 100 95 800 98;
#X obj 597 616 bang~;
#X obj 587 640 snapshot~;
#X obj 587 666 vsl 19 96 0 3 0 0 empty empty empty 0 -9 0 12 #fcfcfc #000000 #000000 0 1;
#X obj 943 615 bang~;
#X obj 933 639 snapshot~;
#X obj 933 665 vsl 19 96 0 3 0 0 empty empty empty 0 -9 0 12 #fcfcfc #000000 #000000 0 1;
#X obj 245 616 bang~;
#X obj 235 640 snapshot~;
#X obj 235 666 vsl 19 96 0 3 0 0 empty empty empty 0 -9 0 12 #fcfcfc #000000 #000000 0 1;
#X obj 758 250 *~;
#X obj 405 250 *~;
#X obj 60 250 *~;
#X obj 1019 62 vsl 19 162 0 1 0 1 empty empty tonal\ range 0 -9 0 12 #c6ffc7 #000000 #000000 14200 1;
#X text 761 27 bass;
#X text 410 27 sopran;
#X text 61 27 alt;
#X floatatom 1019 232 5 0 0 0 - - - 0;
#X obj 405 278 +~ 2;
#X obj 60 347 sig2scale~;
#X obj 405 347 sig2scale~;
#X obj 758 347 sig2scale~;
#X msg 120 302 portamento \$1;
#X msg 465 302 portamento \$1;
#X msg 818 302 portamento \$1;
#X obj 407 49 phasor~ 0.0017;
#X obj 572 401 phasor~ 0.004;
#X msg 867 328 0 1.8 3 5 7 9 10 12;
#X connect 0 0 7 0;
#X connect 2 0 1 0;
#X connect 2 0 1 1;
#X connect 2 0 70 0;
#X connect 2 0 95 0;
#X connect 3 0 2 1;
#X connect 4 0 5 0;
#X connect 5 0 117 0;
#X connect 6 0 91 2;
#X connect 7 0 8 0;
#X connect 7 0 9 0;
#X connect 8 0 12 0;
#X connect 9 0 10 0;
#X connect 10 0 11 0;
#X connect 11 0 69 0;
#X connect 12 0 91 0;
#X connect 13 0 91 1;
#X connect 14 0 6 0;
#X connect 15 0 20 0;
#X connect 16 0 19 0;
#X connect 17 0 19 1;
#X connect 17 0 19 2;
#X connect 18 0 107 0;
#X connect 19 0 18 0;
#X connect 20 0 21 0;
#X connect 21 0 91 3;
#X connect 22 0 26 0;
#X connect 23 0 24 0;
#X connect 24 0 118 0;
#X connect 25 0 78 2;
#X connect 26 0 27 0;
#X connect 26 0 28 0;
#X connect 27 0 31 0;
#X connect 28 0 29 0;
#X connect 29 0 30 0;
#X connect 30 0 85 0;
#X connect 31 0 78 0;
#X connect 32 0 78 1;
#X connect 33 0 36 0;
#X connect 34 0 72 0;
#X connect 35 0 72 1;
#X connect 35 0 72 2;
#X connect 36 0 37 0;
#X connect 37 0 78 3;
#X connect 38 0 42 0;
#X connect 39 0 40 0;
#X connect 40 0 119 0;
#X connect 41 0 79 2;
#X connect 42 0 43 0;
#X connect 42 0 44 0;
#X connect 43 0 47 0;
#X connect 44 0 45 0;
#X connect 45 0 46 0;
#X connect 46 0 75 0;
#X connect 47 0 79 0;
#X connect 48 0 79 1;
#X connect 49 0 52 0;
#X connect 50 0 73 0;
#X connect 51 0 73 1;
#X connect 51 0 73 2;
#X connect 52 0 82 0;
#X connect 53 0 55 0;
#X connect 54 0 55 1;
#X connect 54 0 55 2;
#X connect 55 0 89 0;
#X connect 56 0 53 0;
#X connect 57 0 87 0;
#X connect 58 0 60 0;
#X connect 59 0 60 1;
#X connect 59 0 60 2;
#X connect 60 0 61 0;
#X connect 61 0 86 0;
#X connect 62 0 64 0;
#X connect 63 0 64 1;
#X connect 63 0 64 2;
#X connect 64 0 90 0;
#X connect 65 0 88 0;
#X connect 66 0 16 0;
#X connect 67 0 25 0;
#X connect 68 0 38 0;
#X connect 69 0 13 0;
#X connect 70 0 95 1;
#X connect 71 0 0 0;
#X connect 72 0 80 0;
#X connect 73 0 81 0;
#X connect 74 0 50 0;
#X connect 75 0 48 0;
#X connect 76 0 41 0;
#X connect 77 0 62 0;
#X connect 78 0 83 0;
#X connect 79 0 92 0;
#X connect 80 0 106 0;
#X connect 81 0 105 0;
#X connect 82 0 79 3;
#X connect 83 0 2 0;
#X connect 84 0 22 0;
#X connect 85 0 32 0;
#X connect 86 0 31 1;
#X connect 86 0 32 1;
#X connect 86 0 97 0;
#X connect 87 0 12 1;
#X connect 87 0 13 1;
#X connect 87 0 103 0;
#X connect 88 0 47 1;
#X connect 88 0 48 1;
#X connect 88 0 100 0;
#X connect 89 0 57 0;
#X connect 90 0 65 0;
#X connect 91 0 83 0;
#X connect 92 0 83 0;
#X connect 93 0 122 0;
#X connect 93 0 51 0;
#X connect 93 0 35 0;
#X connect 93 0 17 0;
#X connect 94 0 63 0;
#X connect 94 0 54 0;
#X connect 94 0 59 0;
#X connect 95 0 1 0;
#X connect 95 1 1 1;
#X connect 96 0 97 0;
#X connect 97 0 98 0;
#X connect 99 0 100 0;
#X connect 100 0 101 0;
#X connect 102 0 103 0;
#X connect 103 0 104 0;
#X connect 105 0 116 0;
#X connect 106 0 113 0;
#X connect 107 0 114 0;
#X connect 108 0 112 0;
#X connect 112 0 105 1;
#X connect 112 0 107 1;
#X connect 112 0 106 1;
#X connect 113 0 115 0;
#X connect 114 0 71 0;
#X connect 114 1 15 0;
#X connect 115 0 84 0;
#X connect 115 1 33 0;
#X connect 116 0 68 0;
#X connect 116 1 49 0;
#X connect 117 0 114 0;
#X connect 118 0 115 0;
#X connect 119 0 116 0;
#X connect 120 0 34 0;
#X connect 121 0 58 0;
#X connect 122 0 116 0;
#X connect 122 0 115 0;
#X connect 122 0 114 0;
