#N canvas 411 45 1072 792 12;
#X obj 564 360 +~ 0.25;
#X obj 564 384 wrap~;
#X obj 564 408 cos~;
#X obj 499 408 cos~;
#X obj 69 704 dac~;
#X obj 498 492 *~;
#X obj 564 492 *~;
#X obj 498 289 mtof;
#X obj 137 360 +~ 0.25;
#X obj 137 384 wrap~;
#X obj 137 408 cos~;
#X obj 72 408 cos~;
#X obj 71 492 *~;
#X obj 137 492 *~;
#X obj 71 289 mtof;
#X obj 347 360 +~ 0.25;
#X obj 347 384 wrap~;
#X obj 347 408 cos~;
#X obj 282 408 cos~;
#X obj 281 492 *~;
#X obj 347 492 *~;
#X obj 281 289 mtof;
#X obj 71 227 unpack f f f;
#X obj 497 541 perlin_3d~ 3 -persistence 0.2;
#X msg 300 131 \$1 100;
#X obj 300 155 line~;
#X obj 303 74 hsl 162 19 0.1 100 1 1 empty empty radius\ of\ the\ circular\ movement -2 -10 0 12 #c6ffc7 #000000 #000000 9000 1;
#X floatatom 300 109 5 0 0 0 - - - 0;
#X obj 71 134 f;
#X obj 100 134 + 1;
#X obj 129 134 mod 2;
#X obj 87 74 tgl 19 0 empty empty play 0 -10 0 12 #c6ffc7 #000000 #000000 0 1;
#X obj 69 677 *~;
#X obj 71 166 sel 0 1;
#X obj 71 109 metro 800;
#X msg 71 197 34 37 41;
#X msg 146 197 36 39 44;
#X obj 631 466 phasor~ 0.01;
#X obj 631 490 *~ 256;
#X obj 70 541 perlin_3d~ 3 -persistence 0.4;
#X obj 282 541 perlin_3d~ 3 -persistence 0.3;
#X obj 498 314 phasor~;
#X obj 281 314 phasor~;
#X obj 71 314 phasor~;
#X text 602 407 circular movement is created by two cos~ where one has a 90° offset (and is therefore the sinus)., f 50;
#X text 538 289 frequency of the rotation is set by the tonal lists above.;
#X obj 87 650 line~;
#X obj 87 626 pack f 200;
#X text 734 457 the circle is steadily and slowly moving through Perlin space. This means that it's actually a spiral movement which results in a more interesting timbre than keeping a fixed position., f 39;
#X obj 700 74 hsl 162 19 0.01 1 1 1 empty empty persistence -2 -10 0 12 #c6ffc7 #000000 #000000 0 1;
#X floatatom 697 98 5 0 0 0 - - - 0;
#X obj 69 600 *~ 0.4;
#X connect 0 0 1 0;
#X connect 1 0 2 0;
#X connect 2 0 6 0;
#X connect 3 0 5 0;
#X connect 5 0 23 0;
#X connect 6 0 23 1;
#X connect 7 0 41 0;
#X connect 8 0 9 0;
#X connect 9 0 10 0;
#X connect 10 0 13 0;
#X connect 11 0 12 0;
#X connect 12 0 39 0;
#X connect 13 0 39 1;
#X connect 14 0 43 0;
#X connect 15 0 16 0;
#X connect 16 0 17 0;
#X connect 17 0 20 0;
#X connect 18 0 19 0;
#X connect 19 0 40 0;
#X connect 20 0 40 1;
#X connect 21 0 42 0;
#X connect 22 0 14 0;
#X connect 22 1 21 0;
#X connect 22 2 7 0;
#X connect 23 0 51 0;
#X connect 24 0 25 0;
#X connect 25 0 6 1;
#X connect 25 0 20 1;
#X connect 25 0 19 1;
#X connect 25 0 13 1;
#X connect 25 0 12 1;
#X connect 25 0 5 1;
#X connect 26 0 27 0;
#X connect 27 0 24 0;
#X connect 28 0 29 0;
#X connect 28 0 33 0;
#X connect 29 0 30 0;
#X connect 30 0 28 1;
#X connect 31 0 34 0;
#X connect 31 0 47 0;
#X connect 32 0 4 0;
#X connect 32 0 4 1;
#X connect 33 0 35 0;
#X connect 33 1 36 0;
#X connect 34 0 28 0;
#X connect 35 0 22 0;
#X connect 36 0 22 0;
#X connect 37 0 38 0;
#X connect 38 0 23 2;
#X connect 38 0 39 2;
#X connect 38 0 40 2;
#X connect 39 0 51 0;
#X connect 40 0 51 0;
#X connect 41 0 0 0;
#X connect 41 0 3 0;
#X connect 42 0 15 0;
#X connect 42 0 18 0;
#X connect 43 0 8 0;
#X connect 43 0 11 0;
#X connect 46 0 32 1;
#X connect 47 0 46 0;
#X connect 49 0 50 0;
#X connect 50 0 23 3;
#X connect 50 0 40 3;
#X connect 50 0 39 3;
#X connect 51 0 32 0;
