#N canvas 670 120 428 422 12;
#X obj 44 46 inlet~;
#X obj 44 102 tabread~ \$1;
#X obj 164 348 outlet~;
#X obj 44 348 outlet~;
#X obj 44 244 *~ 2;
#X obj 44 268 -~ 1;
#X obj 163 268 -~ 1;
#X obj 163 220 expr~ $v1 & 2;
#X obj 44 220 expr~ $v1 & 1;
#X obj 285 348 outlet~;
#X obj 284 268 -~ 1;
#X obj 44 142 expr~ $v1 & 7;
#X text 145 142 % 8;
#X obj 284 220 expr~ $v1 & 4;
#X obj 284 244 /~ 2;
#X connect 0 0 1 0;
#X connect 1 0 11 0;
#X connect 4 0 5 0;
#X connect 5 0 3 0;
#X connect 6 0 2 0;
#X connect 7 0 6 0;
#X connect 8 0 4 0;
#X connect 10 0 9 0;
#X connect 11 0 8 0;
#X connect 11 0 7 0;
#X connect 11 0 13 0;
#X connect 13 0 14 0;
#X connect 14 0 10 0;
