#N canvas 245 44 1407 923 12;
#X obj 56 834 dac~;
#X obj 56 810 *~ 0.3;
#X obj 58 236 *~ 256;
#X obj 61 150 hsl 162 19 0.001 10 1 1 empty empty frequency\ of\ modulating\ noise -2 -10 0 12 #c6ffc7 #000000 #000000 5300 1;
#X obj 656 142 phasor~ 1;
#X obj 656 166 *~ 256;
#X obj 659 110 hsl 162 19 0.001 10 1 1 empty empty frequency\ of\ modulating\ noise 170 10 0 12 #c6ffc7 #000000 #000000 10300 1;
#X obj 656 639 +~;
#X obj 57 759 *~;
#X obj 75 734 tgl 19 0 empty empty play 0 -10 0 12 #c6ffc7 #000000 #000000 0 1;
#X obj 655 759 *~;
#X obj 673 734 tgl 19 0 empty empty play 0 -10 0 12 #c6ffc7 #000000 #000000 0 1;
#X obj 695 572 hsl 162 19 0 8 0 1 empty empty frequency\ range\ of\ modulation 170 10 0 12 #c6ffc7 #000000 #000000 2100 1;
#X obj 674 602 *~;
#X obj 673 240 phasor~ 1;
#X obj 673 264 *~ 256;
#X obj 676 208 hsl 162 19 0.01 1 1 1 empty empty frequency\ of\ noise\ modulating\ frequency\ of\ modulating\ noise 170 10 0 12 #c6ffc7 #000000 #000000 11400 1;
#X obj 845 639 *~ 256;
#X obj 167 639 *~ 256;
#X obj 806 501 *~ 256;
#X obj 674 502 +~;
#X obj 713 439 hsl 162 19 0 8 0 1 empty empty frequency\ range\ of\ modulation\ of\ modulation 170 10 0 12 #c6ffc7 #000000 #000000 8100 1;
#X obj 692 469 *~;
#X obj 691 332 phasor~ 1;
#X obj 691 356 *~ 256;
#X obj 694 300 hsl 162 19 0.01 1 1 1 empty empty frequency\ of\ noise\ modulating\ modulation\ of\ frequency\ of\ modulating\ noise 170 10 0 12 #c6ffc7 #000000 #000000 7700 1;
#X obj 825 368 *~ 256;
#X obj 806 477 phasor~ 0.05;
#X obj 656 676 perlin_3d~ 6 -persistence 0.5 -offset 0.2;
#X obj 674 538 perlin_3d~ 4 -persistence 0.2;
#X obj 692 405 perlin_3d~ 4 -persistence 0.5;
#X obj 167 615 phasor~ 0.001;
#X obj 78 357 hsl 162 19 0 128 0 1 empty empty modulating\ range -2 -10 0 12 #c6ffc7 #000000 #000000 2500 1;
#X floatatom 75 381 5 0 0 0 - - - 0;
#X obj 57 471 *~;
#X obj 75 427 line~;
#X obj 152 236 *~ 256;
#X floatatom 58 174 5 0 0 0 - - - 0;
#X obj 58 212 phasor~;
#X obj 845 615 phasor~ 0.001;
#X floatatom 614 110 5 0 0 0 - - - 0;
#X text 57 43 perlin values used as coordinate input for another perlin noise, f 35;
#X obj 344 150 hsl 162 19 0.02 2 1 1 empty empty persistence -2 -10 0 12 #c6ffc7 #000000 #000000 5200 1;
#X msg 341 237 persistence \$1;
#X floatatom 341 175 5 0 0 0 - - - 0;
#X obj 57 268 perlin_3d~ 4 -persistence 0.4 -offset 0.5;
#X obj 57 676 perlin_3d~ 4 -offset 0.3;
#X obj 152 212 phasor~ 0.002;
#X obj 75 404 pack f 200;
#X obj 825 344 phasor~ 0.001;
#X text 653 45 Modulating the linear movement of a Perlin noise with a Perlin noise generated by a linear movement modulated with a Perlin noise (this is actually a bit useless and not a very convincing application yet), f 69;
#X connect 1 0 0 0;
#X connect 1 0 0 1;
#X connect 2 0 45 0;
#X connect 3 0 37 0;
#X connect 4 0 5 0;
#X connect 5 0 7 0;
#X connect 6 0 4 0;
#X connect 6 0 40 0;
#X connect 7 0 28 0;
#X connect 8 0 1 0;
#X connect 9 0 8 1;
#X connect 10 0 1 0;
#X connect 11 0 10 1;
#X connect 12 0 13 1;
#X connect 13 0 7 1;
#X connect 14 0 15 0;
#X connect 15 0 20 0;
#X connect 16 0 14 0;
#X connect 17 0 28 1;
#X connect 17 0 28 2;
#X connect 18 0 46 1;
#X connect 18 0 46 2;
#X connect 19 0 29 2;
#X connect 19 0 29 1;
#X connect 20 0 29 0;
#X connect 21 0 22 1;
#X connect 22 0 20 1;
#X connect 23 0 24 0;
#X connect 24 0 30 0;
#X connect 25 0 23 0;
#X connect 26 0 30 2;
#X connect 26 0 30 1;
#X connect 27 0 19 0;
#X connect 28 0 10 0;
#X connect 29 0 13 0;
#X connect 30 0 22 0;
#X connect 31 0 18 0;
#X connect 32 0 33 0;
#X connect 33 0 48 0;
#X connect 34 0 46 0;
#X connect 35 0 34 1;
#X connect 36 0 45 1;
#X connect 36 0 45 2;
#X connect 37 0 38 0;
#X connect 38 0 2 0;
#X connect 39 0 17 0;
#X connect 42 0 44 0;
#X connect 43 0 45 0;
#X connect 44 0 43 0;
#X connect 45 0 34 0;
#X connect 46 0 8 0;
#X connect 47 0 36 0;
#X connect 48 0 35 0;
#X connect 49 0 26 0;
