#N canvas 234 234 685 249 12;
#X obj 50 45 inlet~;
#X obj 152 45 inlet~;
#X text 101 44 x1;
#X text 203 44 y1;
#X obj 50 175 outlet~;
#X obj 255 45 inlet~;
#X obj 359 45 inlet~;
#X obj 461 45 inlet~;
#X obj 564 45 inlet~;
#X text 306 44 z1;
#X text 410 44 x2;
#X text 512 44 y2;
#X text 615 44 z2;
#X obj 50 108 expr~ $v1 * $v4 + $v2 * $v5 + $v3 * $v6, f 74;
#X connect 0 0 13 0;
#X connect 1 0 13 1;
#X connect 5 0 13 2;
#X connect 6 0 13 3;
#X connect 7 0 13 4;
#X connect 8 0 13 5;
#X connect 13 0 4 0;
