#N canvas 670 224 333 421 12;
#X obj 130 135 *~ 6;
#X obj 130 159 -~ 15;
#X obj 113 184 *~;
#X obj 113 208 +~ 10;
#X obj 94 232 *~;
#X obj 74 256 *~;
#X obj 54 280 *~;
#X obj 54 78 +~;
#X text 174 160 ($v1 * 6 - 15);
#X text 157 208 * $v1 + 10;
#X text 121 231 * $v1;
#X text 106 257 * $v1;
#X text 84 281 * $v1;
#X obj 54 48 inlet~;
#X obj 54 314 outlet~;
#X connect 0 0 1 0;
#X connect 1 0 2 1;
#X connect 2 0 3 0;
#X connect 3 0 4 1;
#X connect 4 0 5 1;
#X connect 5 0 6 1;
#X connect 6 0 14 0;
#X connect 7 0 0 0;
#X connect 7 0 6 0;
#X connect 7 0 5 0;
#X connect 7 0 4 0;
#X connect 7 0 2 0;
#X connect 13 0 7 0;
