#N canvas 45 9 1797 1019 12;
#X obj 641 19 inlet~;
#X obj 250 19 inlet~;
#X text 1575 18 persistance;
#X obj 250 181 wrap~;
#X text 282 72 multiply by octave factor;
#X obj 642 181 wrap~;
#X obj 672 269 +~ 1;
#X obj 261 313 +~;
#X obj 353 436 +~ 1;
#X obj 753 436 +~ 1;
#X obj 725 181 -~ 1;
#X obj 333 181 -~ 1;
#X obj 386 833 perlin.3d~-lerp;
#X obj 185 751 perlin.3d~-lerp;
#X obj 583 751 perlin.3d~-lerp;
#X obj 774 957 outlet~;
#X obj 1522 957 outlet~;
#X obj 1523 19 inlet~;
#X obj 1053 19 inlet~;
#X obj 1052 181 wrap~;
#X obj 1135 181 -~ 1;
#X obj 156 482 +~;
#X obj 672 313 +~;
#X obj 353 482 +~;
#X obj 553 482 +~;
#X obj 753 482 +~;
#X obj 949 516 +~ 1;
#X obj 1146 516 +~ 1;
#X obj 1346 516 +~ 1;
#X obj 1546 516 +~ 1;
#X obj 977 751 perlin.3d~-lerp;
#X obj 1379 751 perlin.3d~-lerp;
#X obj 1177 833 perlin.3d~-lerp;
#X obj 774 898 perlin.3d~-lerp;
#X obj 1523 144 pow~ \$1;
#X obj 1272 53 pow \$1;
#X msg 1272 28 2;
#X obj 1272 4 loadbang;
#X obj 1053 72 *~;
#X obj 642 72 *~;
#X obj 251 72 *~;
#X obj 1346 539 tabread~ \$2-permutation;
#X obj 1546 539 tabread~ \$2-permutation;
#X obj 1146 539 tabread~ \$2-permutation;
#X obj 949 539 tabread~ \$2-permutation;
#X obj 753 539 tabread~ \$2-permutation;
#X obj 553 539 tabread~ \$2-permutation;
#X obj 353 539 tabread~ \$2-permutation;
#X obj 156 539 tabread~ \$2-permutation;
#X obj 156 459 tabread~ \$2-permutation;
#X obj 353 459 tabread~ \$2-permutation;
#X obj 553 459 tabread~ \$2-permutation;
#X obj 753 459 tabread~ \$2-permutation;
#X obj 672 292 tabread~ \$2-permutation;
#X obj 261 290 tabread~ \$2-permutation;
#X obj 774 928 *~;
#X text 1578 956 total amplitude outlet;
#X text 1289 180 0..255 (int conversion not necessary for tabread~);
#X text 39 783 Originally based on Raouf Touti's explanations and code on https://rtouti.github.io/graphics/perlin-noise-algorithm, f 59;
#X text 1267 180 Z;
#X text 857 180 Y;
#X text 465 180 X;
#X text 293 180 x;
#X text 301 18 input x;
#X text 692 18 input y;
#X text 1104 18 input z;
#X text 684 180 y;
#X text 1095 180 z;
#X text 782 481 BB = p[B+1]+Z;
#X text 582 481 BA = p[B]+Z;
#X text 701 312 B = p[X+1]+Y;
#X text 289 312 A = p[X ]+Y;
#X text 183 481 AA = p[A]+Z;
#X text 381 481 AB = p[A+1]+Z;
#X text 41 44 args: index \, \$0 of calling patch;
#X text 432 704 u;
#X text 823 797 v;
#X text 1236 867 w;
#X text 39 867 expr~ objects replaced with standard math objects and aligned with Perlin's improved code on https://cs.nyu.edu/~perlin/noise/ (thanks for the suggestions \, lacuna!)., f 65;
#X text 39 937 additional helpful explanations were used from https://www.scratchapixel.com/lessons/procedural-generation-virtual-worlds/perlin-noise-part-2/improved-perlin-noise, f 75;
#X obj 81 645 perlin.3d~-grad \$2;
#X obj 281 645 perlin.3d~-grad \$2;
#X obj 481 645 perlin.3d~-grad \$2;
#X obj 681 645 perlin.3d~-grad \$2;
#X obj 875 645 perlin.3d~-grad \$2;
#X obj 1075 645 perlin.3d~-grad \$2;
#X obj 1275 645 perlin.3d~-grad \$2;
#X obj 1475 645 perlin.3d~-grad \$2;
#X obj 642 797 perlin.3d~-fade \$2-easing;
#X obj 249 704 perlin.3d~-fade \$2-easing;
#X obj 1053 867 perlin.3d~-fade \$2-easing;
#X obj 508 140 expr~ int($v1) % 256;
#X obj 110 141 wrap~;
#X text 161 163 X;
#X obj 110 116 /~ 256;
#X obj 110 164 *~ 256;
#X obj 414 113 /~ 256;
#X obj 414 138 wrap~;
#X obj 414 160 *~ 256;
#X obj 414 181 -~;
#X obj 806 136 wrap~;
#X obj 1216 136 wrap~;
#X obj 806 158 *~ 256;
#X obj 1216 158 *~ 256;
#X obj 807 181 -~;
#X obj 1216 181 -~;
#X obj 806 114 /~ 256;
#X obj 1216 114 /~ 256;
#X connect 0 0 39 0;
#X connect 1 0 40 0;
#X connect 3 0 11 0;
#X connect 3 0 80 1;
#X connect 3 0 82 1;
#X connect 3 0 84 1;
#X connect 3 0 86 1;
#X connect 3 0 89 0;
#X connect 3 0 99 1;
#X connect 5 0 10 0;
#X connect 5 0 80 2;
#X connect 5 0 81 2;
#X connect 5 0 84 2;
#X connect 5 0 85 2;
#X connect 5 0 88 0;
#X connect 5 0 104 1;
#X connect 6 0 53 0;
#X connect 7 0 8 0;
#X connect 7 0 49 0;
#X connect 8 0 50 0;
#X connect 9 0 52 0;
#X connect 10 0 82 2;
#X connect 10 0 83 2;
#X connect 10 0 86 2;
#X connect 10 0 87 2;
#X connect 11 0 81 1;
#X connect 11 0 83 1;
#X connect 11 0 85 1;
#X connect 11 0 87 1;
#X connect 12 0 33 1;
#X connect 13 0 12 1;
#X connect 14 0 12 2;
#X connect 17 0 34 0;
#X connect 18 0 38 0;
#X connect 19 0 20 0;
#X connect 19 0 80 3;
#X connect 19 0 81 3;
#X connect 19 0 82 3;
#X connect 19 0 83 3;
#X connect 19 0 90 0;
#X connect 19 0 105 1;
#X connect 20 0 84 3;
#X connect 20 0 85 3;
#X connect 20 0 86 3;
#X connect 20 0 87 3;
#X connect 21 0 26 0;
#X connect 21 0 48 0;
#X connect 22 0 9 0;
#X connect 22 0 51 0;
#X connect 23 0 27 0;
#X connect 23 0 47 0;
#X connect 24 0 28 0;
#X connect 24 0 46 0;
#X connect 25 0 29 0;
#X connect 25 0 45 0;
#X connect 26 0 44 0;
#X connect 27 0 43 0;
#X connect 28 0 41 0;
#X connect 29 0 42 0;
#X connect 30 0 32 1;
#X connect 31 0 32 2;
#X connect 32 0 33 2;
#X connect 33 0 55 0;
#X connect 34 0 16 0;
#X connect 34 0 55 1;
#X connect 35 0 38 1;
#X connect 35 0 40 1;
#X connect 35 0 39 1;
#X connect 36 0 35 0;
#X connect 37 0 36 0;
#X connect 38 0 19 0;
#X connect 38 0 107 0;
#X connect 39 0 5 0;
#X connect 39 0 106 0;
#X connect 40 0 3 0;
#X connect 40 0 96 0;
#X connect 41 0 85 0;
#X connect 42 0 87 0;
#X connect 43 0 86 0;
#X connect 44 0 84 0;
#X connect 45 0 83 0;
#X connect 46 0 81 0;
#X connect 47 0 82 0;
#X connect 48 0 80 0;
#X connect 49 0 21 0;
#X connect 50 0 23 0;
#X connect 51 0 24 0;
#X connect 52 0 25 0;
#X connect 53 0 22 0;
#X connect 54 0 7 0;
#X connect 55 0 15 0;
#X connect 80 0 13 1;
#X connect 81 0 13 2;
#X connect 82 0 14 1;
#X connect 83 0 14 2;
#X connect 84 0 30 1;
#X connect 85 0 30 2;
#X connect 86 0 31 1;
#X connect 87 0 31 2;
#X connect 88 0 12 0;
#X connect 88 0 32 0;
#X connect 89 0 13 0;
#X connect 89 0 31 0;
#X connect 89 0 30 0;
#X connect 89 0 14 0;
#X connect 90 0 33 0;
#X connect 92 0 95 0;
#X connect 94 0 92 0;
#X connect 96 0 97 0;
#X connect 97 0 98 0;
#X connect 98 0 99 0;
#X connect 99 0 6 0;
#X connect 99 0 54 0;
#X connect 100 0 102 0;
#X connect 101 0 103 0;
#X connect 102 0 104 0;
#X connect 103 0 105 0;
#X connect 104 0 7 1;
#X connect 104 0 22 1;
#X connect 105 0 25 1;
#X connect 105 0 24 1;
#X connect 105 0 23 1;
#X connect 105 0 21 1;
#X connect 106 0 100 0;
#X connect 107 0 101 0;
