#N canvas 284 29 1274 970 12;
#X obj 59 417 mtof~;
#X obj 58 903 dac~;
#X obj 58 814 *~;
#X obj 83 789 tgl 19 0 empty empty play 24 10 0 12 #c6ffc7 #000000 #000000 0 1;
#X obj 123 255 hsl 162 19 0 2000 0 1 empty empty empty -2 -10 0 12 #fcfcfc #000000 #000000 800 1;
#X floatatom 120 279 5 0 0 0 - - - 0;
#X obj 140 665 *~ 256;
#X obj 60 474 phasor~;
#X obj 60 592 cos~;
#X obj 108 592 cos~;
#X obj 59 642 *~;
#X obj 107 642 *~;
#X obj 140 642 phasor~ 0.01;
#X obj 61 73 *~ 256;
#X obj 434 417 mtof~;
#X obj 498 255 hsl 162 19 0 2000 0 1 empty empty empty -2 -10 0 12 #fcfcfc #000000 #000000 200 1;
#X floatatom 495 279 5 0 0 0 - - - 0;
#X obj 515 665 *~ 256;
#X obj 435 474 phasor~;
#X obj 434 544 +~ 0.25;
#X obj 434 568 wrap~;
#X obj 434 592 cos~;
#X obj 434 642 *~;
#X obj 482 642 *~;
#X obj 436 73 *~ 256;
#X obj 817 417 mtof~;
#X obj 881 255 hsl 162 19 0 2000 0 1 empty empty empty -2 -10 0 12 #fcfcfc #000000 #000000 2700 1;
#X floatatom 878 279 5 0 0 0 - - - 0;
#X obj 898 665 *~ 256;
#X obj 817 474 phasor~;
#X obj 817 642 *~;
#X obj 865 642 *~;
#X obj 819 73 *~ 256;
#X obj 218 417 *~ 256;
#X obj 218 392 phasor~ 0.004;
#X obj 218 520 clip~ 0 2;
#X obj 602 417 *~ 256;
#X obj 602 520 clip~ 0 2;
#X obj 978 417 *~ 256;
#X obj 978 520 clip~ 0 2;
#X obj 515 642 phasor~ 0.011;
#X obj 817 393 +~ 26;
#X obj 105 843 *~ -1;
#X obj 59 393 +~ 62;
#X obj 898 642 phasor~ 0.03;
#X obj 978 392 phasor~ 0.003;
#X obj 58 762 *~ 0.3;
#X obj 434 393 +~ 74;
#X obj 603 543 *~ 2;
#X obj 219 543 *~ 3;
#X obj 979 543 *~ 2.5;
#X obj 218 497 +~ 0.1;
#X obj 817 725 *~ 2.2;
#X obj 927 214 loadbang;
#X obj 627 617 bang~;
#X obj 617 642 snapshot~;
#X obj 617 667 vsl 19 96 0 3 0 0 empty empty empty 0 -9 0 12 #fcfcfc #000000 #000000 0 1;
#X obj 1003 617 bang~;
#X obj 993 642 snapshot~;
#X obj 993 666 vsl 19 96 0 3 0 0 empty empty empty 0 -9 0 12 #fcfcfc #000000 #000000 0 1;
#X obj 245 617 bang~;
#X obj 235 642 snapshot~;
#X obj 235 667 vsl 19 96 0 3 0 0 empty empty empty 0 -9 0 12 #fcfcfc #000000 #000000 0 1;
#X obj 818 250 *~;
#X obj 435 250 *~;
#X obj 60 250 *~;
#X obj 1119 62 vsl 19 162 0 1 0 1 empty empty tonal\ range 0 -9 0 12 #c6ffc7 #000000 #000000 10800 1;
#X text 821 27 bass;
#X text 440 27 sopran;
#X text 61 27 alt;
#X floatatom 1119 232 5 0 0 0 - - - 0;
#X obj 435 278 +~ 2;
#X msg 120 302 portamento \$1;
#X msg 495 302 portamento \$1;
#X msg 878 302 portamento \$1;
#X obj 435 180 *~ 9;
#X obj 818 347 sig2scale~;
#X obj 60 347 sig2scale~;
#X obj 435 347 sig2scale~;
#X obj 141 497 +~ 0.1;
#X obj 521 497 +~ 0.2;
#X obj 141 474 *~ 0.3;
#X obj 897 474 *~ 0.2;
#X obj 897 497 +~ 0.1;
#X obj 521 520 clip~ 0 1;
#X obj 80 866 rev3~ 100 96 400 99;
#X obj 61 180 *~ 8;
#X obj 819 180 *~ 6;
#X msg 1022 328 0 1.8 3 5 7 9 10 12;
#X msg 927 328 0 4 7 11 12;
#X obj 521 474 *~ 0.3;
#X text 1027 307 try different scales here;
#X obj 820 49 phasor~ 0.0002;
#X obj 437 49 phasor~ 0.0011;
#X obj 61 49 phasor~ 0.0008;
#X obj 218 474 perlin_3d~ 3 -p 0.7 -o 0.5;
#X obj 602 474 perlin_3d~ 3 -p 0.7 -o 0.5;
#X obj 978 474 perlin_3d~ 3 -p 0.7 -o 0.5;
#X obj 819 132 perlin_3d~ 2 -p 0.7 -o 0.5;
#X obj 61 131 perlin_3d~ 3 -p 0.7 -o 0.5;
#X obj 59 698 perlin_3d~ 5;
#X obj 434 698 perlin_3d~ 12;
#X obj 817 698 perlin_3d~ 8;
#X obj 59 544 +~ 0.25;
#X obj 59 568 wrap~;
#X obj 482 592 cos~;
#X obj 816 543 +~ 0.25;
#X obj 816 568 wrap~;
#X obj 816 592 cos~;
#X obj 864 592 cos~;
#X obj 59 617 *~ 2;
#X obj 434 617 *~ 1.3;
#X obj 978 497 +~ 0.5;
#X obj 603 392 phasor~ 0.005;
#X obj 436 132 perlin_3d~ 5 -p 0.7 -o 0.5;
#X connect 0 0 7 0;
#X connect 2 0 1 0;
#X connect 2 0 1 1;
#X connect 2 0 42 0;
#X connect 2 0 85 0;
#X connect 3 0 2 1;
#X connect 4 0 5 0;
#X connect 5 0 72 0;
#X connect 6 0 100 2;
#X connect 7 0 103 0;
#X connect 7 0 9 0;
#X connect 8 0 110 0;
#X connect 9 0 11 0;
#X connect 10 0 100 0;
#X connect 11 0 100 1;
#X connect 12 0 6 0;
#X connect 13 0 99 0;
#X connect 14 0 18 0;
#X connect 15 0 16 0;
#X connect 16 0 73 0;
#X connect 17 0 101 2;
#X connect 18 0 19 0;
#X connect 18 0 105 0;
#X connect 19 0 20 0;
#X connect 20 0 21 0;
#X connect 21 0 111 0;
#X connect 22 0 101 0;
#X connect 23 0 101 1;
#X connect 24 0 114 0;
#X connect 25 0 29 0;
#X connect 26 0 27 0;
#X connect 27 0 74 0;
#X connect 28 0 102 2;
#X connect 29 0 106 0;
#X connect 29 0 109 0;
#X connect 30 0 102 0;
#X connect 31 0 102 1;
#X connect 32 0 98 0;
#X connect 33 0 95 0;
#X connect 34 0 33 0;
#X connect 35 0 49 0;
#X connect 36 0 96 0;
#X connect 37 0 48 0;
#X connect 38 0 97 0;
#X connect 39 0 50 0;
#X connect 40 0 17 0;
#X connect 41 0 25 0;
#X connect 42 0 85 1;
#X connect 43 0 0 0;
#X connect 44 0 28 0;
#X connect 45 0 38 0;
#X connect 46 0 2 0;
#X connect 47 0 14 0;
#X connect 48 0 22 1;
#X connect 48 0 23 1;
#X connect 48 0 55 0;
#X connect 49 0 10 1;
#X connect 49 0 11 1;
#X connect 49 0 61 0;
#X connect 50 0 30 1;
#X connect 50 0 31 1;
#X connect 50 0 58 0;
#X connect 51 0 35 0;
#X connect 52 0 46 0;
#X connect 53 0 89 0;
#X connect 54 0 55 0;
#X connect 55 0 56 0;
#X connect 57 0 58 0;
#X connect 58 0 59 0;
#X connect 60 0 61 0;
#X connect 61 0 62 0;
#X connect 63 0 76 0;
#X connect 64 0 71 0;
#X connect 65 0 77 0;
#X connect 66 0 70 0;
#X connect 70 0 63 1;
#X connect 70 0 65 1;
#X connect 70 0 64 1;
#X connect 71 0 78 0;
#X connect 72 0 77 0;
#X connect 73 0 78 0;
#X connect 74 0 76 0;
#X connect 75 0 64 0;
#X connect 76 0 41 0;
#X connect 76 1 82 0;
#X connect 77 0 43 0;
#X connect 77 1 81 0;
#X connect 78 0 47 0;
#X connect 78 1 90 0;
#X connect 79 0 100 3;
#X connect 80 0 84 0;
#X connect 81 0 79 0;
#X connect 82 0 83 0;
#X connect 83 0 102 3;
#X connect 84 0 101 3;
#X connect 85 0 1 0;
#X connect 85 1 1 1;
#X connect 86 0 65 0;
#X connect 87 0 63 0;
#X connect 88 0 76 0;
#X connect 88 0 78 0;
#X connect 88 0 77 0;
#X connect 89 0 78 0;
#X connect 89 0 76 0;
#X connect 89 0 77 0;
#X connect 90 0 80 0;
#X connect 92 0 32 0;
#X connect 93 0 24 0;
#X connect 94 0 13 0;
#X connect 95 0 51 0;
#X connect 96 0 37 0;
#X connect 97 0 112 0;
#X connect 98 0 87 0;
#X connect 99 0 86 0;
#X connect 100 0 46 0;
#X connect 101 0 46 0;
#X connect 102 0 52 0;
#X connect 103 0 104 0;
#X connect 104 0 8 0;
#X connect 105 0 23 0;
#X connect 106 0 107 0;
#X connect 107 0 108 0;
#X connect 108 0 30 0;
#X connect 109 0 31 0;
#X connect 110 0 10 0;
#X connect 111 0 22 0;
#X connect 112 0 39 0;
#X connect 113 0 36 0;
#X connect 114 0 75 0;
