#N canvas 271 44 1362 946 12;
#X declare -lib Gem;
#X declare -path else;
#X obj 1 308 cnv 1 1360 2 empty empty empty 20 12 0 14 #f0f0f0 #404040 0;
#X obj 1 1 cnv 15 1360 48 empty empty empty 20 12 0 14 #f0f0f0 #404040 0;
#X text 26 16 perlin_3d~ : Perlin's improved noise algorithm with 3 signal input dimensions, f 77;
#X obj 219 138 bng 13 250 50 0 \$0-wikipedia-perlin \$0_ 1\ \ wikipedia 4 7 0 8 #c6ffc7 #000000 #000000;
#X text 27 107 Perlin noise was invented by Ken Perlin with the aim of improving computer-generated imagery., f 35;
#N canvas 14 25 1897 979 \$0-page 0;
#X obj 532 673 hsl 192 19 0.02 512 1 1 \$0-scale \$0-scale-receive visible\ range:\ 4.00 -2 -10 0 12 #c6ffc7 #000000 #000000 9970 1;
#X obj 532 869 hsl 192 19 0 2 0 1 \$0-persistence \$0-persistence-receive persistence:\ 0.50 -2 -10 0 12 #c6ffc7 #000000 #000000 4775 1;
#X obj 532 771 hsl 192 19 0 8 0 1 \$0-yoffset \$0-yoffset-receive y-offset:\ 0.00 -2 -10 0 12 #c6ffc7 #000000 #000000 0 1;
#X obj 532 722 hsl 192 19 0 8 0 1 \$0-xoffset \$0-xoffset-receive x-offset:\ 0.00 -2 -10 0 12 #c6ffc7 #000000 #000000 0 1;
#X obj 532 820 hsl 192 19 0 8 0 1 \$0-zoffset \$0-zoffset-receive z-offset:\ 1.55 -2 -10 0 12 #c6ffc7 #000000 #000000 3699 1;
#X obj 1264 658 cnv 1 6 1 empty \$0-ymax 2.00 10 2 0 12 #000000 #000000 0;
#X obj 1264 978 cnv 1 6 1 empty \$0-ymin -2.00 10 0 0 12 #000000 #000000 0;
#X obj 940 982 cnv 1 1 6 empty \$0-xmin -2.00 -18 17 0 12 #000000 #000000 0;
#X obj 1260 982 cnv 1 1 6 empty \$0-xmax 2.00 -18 17 0 12 #000000 #000000 0;
#N canvas 394 222 450 250 (subpatch) 0;
#X array \$0-vis-perlin 420 float 0;
#X coords 0 1 419 -1 420 160 1 0 0;
#X restore 459 423 graph;
#X obj 224 534 hsl 192 19 1 64 0 0 \$0-vis-range \$0-vis-range-receive visible\ range:\ 8.0 -2 -10 0 12 #c6ffc7 #000000 #000000 0 1;
#X obj 20 534 hsl 192 19 0 32 0 0 \$0-vis-offset \$0-vis-offset-receive x-offset:\ 0.0 -2 -10 0 12 #c6ffc7 #000000 #000000 0 1;
#X obj 114 562 bng 19 250 50 0 \$0-vis-offset-to256 \$0_ set\ to\ 256 24 10 0 12 #c6ffc7 #000000 #000000;
#X obj 17 562 bng 19 250 50 0 \$0-vis-offset-to0 \$0_ set\ to\ 0 24 10 0 12 #c6ffc7 #000000 #000000;
#X obj 17 377 bng 19 250 50 0 \$0-vis-reseed \$0_ random\ seed 24 10 0 12 #c6ffc7 #000000 #000000;
#X text 454 169 Every additional octave is based on the same noise function with a frequency of 2^n \, where n is the number of each added octave. The values of all octaves are summed up with a weight for each octave of persistence^n. This results in heigher octaves getting attenuated (which is true for persistance values <1. [perlin_3d~] also allows to amplify higher octaves by setting values >1)., f 57;
#N canvas 26 26 1156 732 (subpatch) 0;
#X array \$0-vis-octave0 420 float 0;
#X array \$0-vis-octave1 420 float 0;
#X array \$0-vis-octave2 420 float 0;
#X coords 0 1 419 -1 420 160 1 0 0;
#X restore 895 423 graph;
#X obj 138 377 bng 19 250 50 0 \$0-vis-seed42 \$0_ seed:\ 42 24 10 0 12 #c6ffc7 #000000 #000000;
#X obj 897 125 tgl 19 0 \$0-vis-normalize \$0-vis-normalize-receive normalize 24 10 0 12 #c6ffc7 #000000 #000000 0 1;
#X obj 459 125 hsl 192 19 0 2 0 0 \$0-vis-persistence \$0-vis-persistence-receive persistence:\ 0.50 200 10 0 12 #c6ffc7 #000000 #000000 0 1;
#X text 454 53 A single noise function does not yet generate a very interesting graph. This is where the concept of octaves and persistence comes into play., f 57;
#N canvas 393 75 1084 835 run_page0_init 0;
#X obj 42 676 r \$0-vis-persistence;
#X obj 42 751 s \$0-vis-persistence-receive;
#X msg 42 726 label persistence:\\\ \$1;
#X obj 42 701 makefilename %.2f;
#X msg 262 726 label visible\\\ range:\\\ \$1;
#X obj 262 701 makefilename %.1f;
#X obj 469 701 makefilename %.1f;
#X msg 469 534 0;
#X msg 613 534 256;
#X obj 613 510 r \$0-vis-offset-to256;
#X obj 469 510 r \$0-vis-offset-to0;
#X obj 41 510 r \$0-vis-reseed;
#X msg 190 558 seed 42;
#X msg 41 558 seed \$1;
#X obj 41 632 s \$0-vis-seed;
#X obj 190 510 r \$0-vis-seed42;
#X obj 175 227 s \$0-vis-octave1;
#X obj 55 227 s \$0-vis-octave0;
#X obj 295 227 s \$0-vis-octave2;
#X obj 660 701 makefilename %.2f;
#X obj 660 676 r \$0-vis-ypos;
#X obj 660 751 s \$0-vis-ypos-receive;
#X obj 850 701 makefilename %.2f;
#X obj 850 676 r \$0-vis-zpos;
#X obj 850 751 s \$0-vis-zpos-receive;
#X obj 469 751 s \$0-vis-offset-receive;
#X obj 262 751 s \$0-vis-range-receive;
#X obj 469 676 r \$0-vis-offset;
#X obj 262 676 r \$0-vis-range;
#X msg 295 203 color 666;
#X obj 489 381 f 1;
#X obj 506 325 f 8;
#X obj 506 349 s \$0-vis-range-receive;
#X obj 489 405 s \$0-vis-normalize-receive;
#X obj 472 462 s \$0-vis-persistence-receive;
#X obj 455 56 r \$0-vis-prepared;
#X obj 540 233 s \$0-vis-ypos;
#X obj 523 289 s \$0-vis-zpos;
#X obj 540 209 f 0;
#X obj 523 265 f 0;
#X obj 557 151 f 0;
#X obj 557 175 s \$0-vis-offset;
#X obj 469 632 s \$0-vis-offset;
#X obj 469 558 t f f;
#X obj 613 558 t f f;
#X text 582 626 FIXME: should not be necessary - but doesn't work smoothly otherwise, f 36;
#X msg 469 726 label x-offset:\\\ \$1;
#X msg 660 726 label y-position:\\\ \$1;
#X msg 850 726 label z-position:\\\ \$1;
#X obj 472 438 f 0.5;
#X msg 175 203 color 444;
#X msg 55 203 color 222;
#X obj 249 152 t b b b;
#X obj 455 80 t b b b b b b b;
#X obj 41 534 random 1e+09;
#X connect 0 0 3 0;
#X connect 2 0 1 0;
#X connect 3 0 2 0;
#X connect 4 0 26 0;
#X connect 5 0 4 0;
#X connect 6 0 46 0;
#X connect 7 0 43 0;
#X connect 8 0 44 0;
#X connect 9 0 8 0;
#X connect 10 0 7 0;
#X connect 11 0 54 0;
#X connect 12 0 14 0;
#X connect 13 0 14 0;
#X connect 15 0 12 0;
#X connect 19 0 47 0;
#X connect 20 0 19 0;
#X connect 22 0 48 0;
#X connect 23 0 22 0;
#X connect 27 0 6 0;
#X connect 28 0 5 0;
#X connect 29 0 18 0;
#X connect 30 0 33 0;
#X connect 31 0 32 0;
#X connect 35 0 53 0;
#X connect 38 0 36 0;
#X connect 39 0 37 0;
#X connect 40 0 41 0;
#X connect 43 0 42 0;
#X connect 43 1 25 0;
#X connect 44 0 42 0;
#X connect 44 1 25 0;
#X connect 46 0 25 0;
#X connect 47 0 21 0;
#X connect 48 0 24 0;
#X connect 49 0 34 0;
#X connect 50 0 16 0;
#X connect 51 0 17 0;
#X connect 52 0 51 0;
#X connect 52 1 50 0;
#X connect 52 2 29 0;
#X connect 53 0 52 0;
#X connect 53 1 49 0;
#X connect 53 2 30 0;
#X connect 53 3 31 0;
#X connect 53 4 39 0;
#X connect 53 5 38 0;
#X connect 53 6 40 0;
#X connect 54 0 13 0;
#X restore 1383 313 pd run_page0_init;
#N canvas 455 64 1465 885 run_page0_graphs 0;
#X obj 220 517 line~;
#X obj 287 356 pow -1;
#X obj 220 308 t f b;
#X obj 287 404 * 1000;
#X obj 220 441 +;
#X text 340 356 s/sample;
#X text 330 380 s/size of \$0-vis;
#X text 337 404 to ms;
#X obj 200 253 f;
#X obj 220 469 pack f f f;
#X msg 220 493 \$2 \, \$1 \$3;
#X msg 1140 703 edit 0;
#X msg 1140 647 yticks 0 0.1 5;
#X obj 1118 296 pow -1;
#X obj 1118 548 pack;
#X obj 1118 443 *;
#X msg 1118 582 xticks \$1 \$2 2;
#X obj 1118 350 f;
#X obj 1118 320 t b f;
#X obj 278 193 f;
#X obj 1159 623 loadbang;
#X obj 1118 472 /;
#X obj 1118 520 *;
#X obj 1118 496 wrap;
#X obj 1150 419 t f f;
#X obj 1182 442 *;
#X obj 287 379 *;
#X obj 1118 373 *;
#X obj 1118 396 * -1;
#X msg 210 100 range 0 \$1;
#X obj 210 76 * 4;
#X obj 287 332 f;
#X obj 1114 119 samplerate~;
#X obj 1182 476 / 2;
#X obj 200 277 t b f f b;
#X obj 469 76 t b a;
#X obj 469 52 r \$0-vis-seed;
#X obj 606 786 tabwrite~ \$0-vis-octave0;
#X obj 606 614 perlin_3d~ 1 -seed 42 -offset 0.2;
#X obj 718 762 tabwrite~ \$0-vis-octave1;
#X obj 718 687 *~;
#X obj 724 52 r \$0-vis-normalize;
#X obj 770 117 == 0;
#X obj 724 76 t b f f;
#X obj 578 52 r \$0-vis-persistence;
#X obj 578 76 t b f;
#X obj 221 696 *~;
#X obj 321 696 *~;
#X obj 321 638 perlin_3d~ 3 -seed 42 -offset 0.2;
#X obj 718 517 line~;
#X obj 718 469 pack f f f;
#X msg 718 493 \$2 \, \$1 \$3;
#X obj 841 517 line~;
#X obj 841 469 pack f f f;
#X msg 841 493 \$2 \, \$1 \$3;
#X obj 840 710 *~;
#X obj 840 686 *~;
#X obj 840 738 tabwrite~ \$0-vis-octave2;
#X obj 718 399 * 2;
#X obj 200 657 t b b b b, f 10;
#X obj 841 399 * 4;
#X obj 278 218 t b f f f f;
#X obj 718 423 +;
#X obj 841 423 +;
#X obj 874 399 * 4;
#X obj 751 399 * 2;
#X obj 832 324 t f f;
#X obj 859 52 r \$0-vis-ypos;
#X obj 859 76 t b f;
#X obj 959 76 t b f;
#X obj 959 52 r \$0-vis-zpos;
#X obj 200 738 tabwrite~ \$0-vis-perlin;
#X obj 210 124 s \$0-vis-offset-receive;
#X obj 278 168 r \$0-vis-offset;
#X obj 200 52 r \$0-vis-range;
#X obj 1200 119 array size \$0-vis-perlin;
#X obj 1118 738 s \$0-vis-perlin;
#X text 584 281 CHAOS!;
#X obj 1091 76 t b b b;
#X obj 1091 220 s \$0-vis-prepared;
#X obj 991 369 * 4;
#X obj 903 369 * 4;
#X obj 930 357 * 2;
#X obj 842 357 * 2;
#X text 1135 155 FIXME: y so ugly?;
#X obj 1091 155 del 0;
#X obj 1273 154 r \$0-dsp-state;
#X obj 1091 52 loadbang;
#X obj 94 565 r \$0-dsp-state;
#X obj 41 589 spigot 0;
#X obj 1273 178 sel 1;
#X msg 1140 671 ylabel -2 -1 0 1;
#X obj 1232 786 s \$0-vis-octave2;
#X obj 1232 762 s \$0-vis-octave1;
#X obj 1232 738 s \$0-vis-octave0;
#X obj 41 688 switch~ 512 1 1;
#X obj 221 614 perlin_3d~ 3 -seed 42 -offset 0.2 normalize;
#X obj 718 638 perlin_3d~ 1 -seed 42 -offset 0.4;
#X obj 840 662 perlin_3d~ 1 -seed 42 -offset 0.8;
#X obj 472 110 print;
#X connect 0 0 38 0;
#X connect 0 0 48 0;
#X connect 0 0 96 0;
#X connect 1 0 26 0;
#X connect 2 0 4 0;
#X connect 2 0 58 0;
#X connect 2 0 60 0;
#X connect 2 1 31 0;
#X connect 3 0 9 2;
#X connect 3 0 50 2;
#X connect 3 0 53 2;
#X connect 4 0 9 0;
#X connect 8 0 34 0;
#X connect 9 0 10 0;
#X connect 10 0 0 0;
#X connect 11 0 76 0;
#X connect 11 0 94 0;
#X connect 11 0 93 0;
#X connect 11 0 92 0;
#X connect 12 0 76 0;
#X connect 13 0 18 0;
#X connect 14 0 16 0;
#X connect 15 0 21 0;
#X connect 16 0 76 0;
#X connect 17 0 27 0;
#X connect 18 0 17 0;
#X connect 18 1 24 0;
#X connect 19 0 61 0;
#X connect 20 0 12 0;
#X connect 20 0 91 0;
#X connect 20 0 11 0;
#X connect 21 0 23 0;
#X connect 22 0 14 0;
#X connect 23 0 22 0;
#X connect 24 0 15 1;
#X connect 24 1 25 0;
#X connect 25 0 21 1;
#X connect 25 0 22 1;
#X connect 25 0 33 0;
#X connect 26 0 3 0;
#X connect 27 0 28 0;
#X connect 28 0 15 0;
#X connect 29 0 72 0;
#X connect 30 0 29 0;
#X connect 31 0 1 0;
#X connect 32 0 31 1;
#X connect 33 0 14 1;
#X connect 34 0 59 0;
#X connect 34 1 2 0;
#X connect 34 2 13 0;
#X connect 34 3 89 0;
#X connect 35 0 19 0;
#X connect 35 1 99 0;
#X connect 35 1 98 0;
#X connect 35 1 97 0;
#X connect 35 1 38 0;
#X connect 35 1 48 0;
#X connect 35 1 96 0;
#X connect 36 0 35 0;
#X connect 38 0 37 0;
#X connect 40 0 39 0;
#X connect 41 0 43 0;
#X connect 42 0 47 1;
#X connect 43 0 19 0;
#X connect 43 1 46 1;
#X connect 43 2 42 0;
#X connect 44 0 45 0;
#X connect 45 0 19 0;
#X connect 45 1 40 1;
#X connect 45 1 56 1;
#X connect 45 1 55 1;
#X connect 45 1 48 3;
#X connect 45 1 96 3;
#X connect 46 0 71 0;
#X connect 47 0 71 0;
#X connect 48 0 47 0;
#X connect 49 0 97 0;
#X connect 50 0 51 0;
#X connect 51 0 49 0;
#X connect 52 0 98 0;
#X connect 53 0 54 0;
#X connect 54 0 52 0;
#X connect 55 0 57 0;
#X connect 56 0 55 0;
#X connect 58 0 62 0;
#X connect 59 0 71 0;
#X connect 59 1 37 0;
#X connect 59 2 39 0;
#X connect 59 3 57 0;
#X connect 60 0 63 0;
#X connect 61 0 8 0;
#X connect 61 1 4 1;
#X connect 61 2 9 1;
#X connect 61 3 66 0;
#X connect 61 4 17 1;
#X connect 62 0 50 0;
#X connect 63 0 53 0;
#X connect 64 0 53 1;
#X connect 64 0 63 1;
#X connect 65 0 50 1;
#X connect 65 0 62 1;
#X connect 66 0 65 0;
#X connect 66 1 64 0;
#X connect 67 0 68 0;
#X connect 68 0 19 0;
#X connect 68 1 81 0;
#X connect 68 1 83 0;
#X connect 68 1 38 1;
#X connect 68 1 48 1;
#X connect 68 1 96 1;
#X connect 69 0 19 0;
#X connect 69 1 80 0;
#X connect 69 1 82 0;
#X connect 69 1 38 2;
#X connect 69 1 48 2;
#X connect 69 1 96 2;
#X connect 70 0 69 0;
#X connect 73 0 19 0;
#X connect 74 0 8 0;
#X connect 74 0 30 0;
#X connect 75 0 25 1;
#X connect 75 0 26 1;
#X connect 75 0 27 1;
#X connect 78 0 85 0;
#X connect 78 1 32 0;
#X connect 78 2 75 0;
#X connect 80 0 98 2;
#X connect 81 0 98 1;
#X connect 82 0 97 2;
#X connect 83 0 97 1;
#X connect 85 0 79 0;
#X connect 86 0 90 0;
#X connect 87 0 78 0;
#X connect 88 0 89 1;
#X connect 89 0 95 0;
#X connect 90 0 79 0;
#X connect 91 0 76 0;
#X connect 96 0 46 0;
#X connect 97 0 40 0;
#X connect 98 0 56 0;
#X restore 1383 337 pd run_page0_graphs;
#X obj 900 326 hsl 192 19 0 4 0 0 \$0-vis-ypos \$0-vis-ypos-receive y-position:\ 0.00 -2 -10 0 12 #c6ffc7 #000000 #000000 0 1;
#X obj 1104 326 hsl 192 19 0 4 0 0 \$0-vis-zpos \$0-vis-zpos-receive z-position:\ 0.71 -2 -10 0 12 #c6ffc7 #000000 #000000 0 1;
#X obj 15 1616 bng 19 250 50 0 \$0-examples-circles \$0_ load\ example:\ circular\ movements 23 10 0 12 #c6ffc7 #000000 #000000;
#X text 895 169 The algorithm is typically used in 1D \, 2D and 3D variations - more dimensions work just as well \, but they also require more computation time., f 57;
#X obj 737 820 tgl 19 0 \$0-animate-z \$0-animate-z-receive animate\ z 24 10 0 12 #c6ffc7 #000000 #000000 0 1;
#X obj 369 913 vradio 19 1 0 2 \$0-choose2d3d \$0-choose2d3d-receive empty 0 -10 0 12 #c6ffc7 #000000 #000000 0;
#N canvas 455 170 1055 694 run_page1 0;
#N canvas 725 127 443 774 manage_scale 0;
#X obj 61 54 r \$0-scale;
#X obj 148 54 r \$0-xoffset;
#X obj 248 54 r \$0-yoffset;
#X obj 114 193 * 0.5;
#X obj 61 193 * -0.5;
#X obj 61 275 +;
#X obj 114 275 +;
#X obj 221 193 * 0.5;
#X obj 168 193 * -0.5;
#X obj 168 275 +;
#X obj 221 275 +;
#X obj 230 251 t b f;
#X obj 175 251 t b f;
#X obj 123 251 t b f;
#X obj 68 251 t b f;
#X obj 148 109 t f f;
#X msg 61 350 label \$1;
#X obj 61 314 makefilename %.2f;
#X obj 61 373 s \$0-xmin;
#X msg 114 450 label \$1;
#X obj 114 414 makefilename %.2f;
#X obj 114 473 s \$0-xmax;
#X msg 168 554 label \$1;
#X obj 168 518 makefilename %.2f;
#X msg 221 654 label \$1;
#X obj 221 618 makefilename %.2f;
#X obj 168 577 s \$0-ymin;
#X obj 221 677 s \$0-ymax;
#X obj 61 109 t f f;
#X obj 248 109 t f f;
#X connect 0 0 28 0;
#X connect 1 0 15 0;
#X connect 2 0 29 0;
#X connect 3 0 6 0;
#X connect 4 0 5 0;
#X connect 5 0 17 0;
#X connect 6 0 20 0;
#X connect 7 0 10 0;
#X connect 8 0 9 0;
#X connect 9 0 23 0;
#X connect 10 0 25 0;
#X connect 11 0 10 0;
#X connect 11 1 10 1;
#X connect 12 0 9 0;
#X connect 12 1 9 1;
#X connect 13 0 6 0;
#X connect 13 1 6 1;
#X connect 14 0 5 0;
#X connect 14 1 5 1;
#X connect 15 0 14 0;
#X connect 15 1 13 0;
#X connect 16 0 18 0;
#X connect 17 0 16 0;
#X connect 19 0 21 0;
#X connect 20 0 19 0;
#X connect 22 0 26 0;
#X connect 23 0 22 0;
#X connect 24 0 27 0;
#X connect 25 0 24 0;
#X connect 28 0 4 0;
#X connect 28 0 8 0;
#X connect 28 1 3 0;
#X connect 28 1 7 0;
#X connect 29 0 12 0;
#X connect 29 1 11 0;
#X restore 55 142 pd manage_scale;
#N canvas 505 37 926 916 visualize_2d 0;
#X obj 156 571 gemlist;
#X obj 156 476 until;
#X obj 81 369 route gem_state;
#X obj 81 391 route float;
#X obj 81 347 t a a;
#X obj 332 571 gemlist;
#X obj 352 471 until;
#X obj 278 367 route gem_state;
#X obj 278 389 route float;
#X obj 278 345 t a a;
#X obj 156 617 separator;
#X obj 384 518 f;
#X obj 156 594 translateXYZ 0.2 0 0;
#X obj 188 523 f;
#X obj 156 499 t b b;
#X obj 413 518 + 1;
#X obj 217 523 + 1;
#X obj 332 703 colorRGB 1 1 1 1;
#X obj 352 435 t f b;
#X obj 156 437 t f b;
#X obj 332 594 translateXYZ 0 0.2 0;
#X obj 352 494 t b b;
#X obj 402 495 f 0;
#X obj 206 500 f 0;
#X obj 441 657 +;
#X obj 640 266 samplerate~;
#X obj 590 290 /;
#X obj 590 314 * 1000;
#X text 642 313 ms;
#X obj 590 362 line~;
#X obj 591 486 -~;
#X obj 649 427 wrap~;
#X obj 637 576 *~;
#X obj 590 576 *~;
#X obj 589 764 +~ 1;
#X obj 589 788 /~ 2;
#X obj 589 654 +~;
#X obj 636 654 +~;
#X obj 332 726 alpha 1;
#X obj 590 534 -~ 0.5;
#X obj 636 511 -~ 0.5;
#X text 619 290 duration in s;
#X obj 590 266 f 4096;
#X msg 590 338 0 \, 4096 \$1;
#X obj 649 401 /~ 64;
#X obj 609 461 /~ 64;
#X obj 459 634 * 64;
#X msg 155 414 64;
#X msg 352 412 64;
#X obj 667 545 r \$0-scale;
#X obj 667 624 r \$0-xoffset;
#X obj 760 624 r \$0-yoffset;
#X obj 648 700 r \$0-zoffset;
#X obj 741 700 r \$0-persistence;
#X obj 639 243 loadbang;
#X obj 558 230 t b b;
#X obj 558 207 metro 1 60 persec;
#X obj 332 749 square 0.1;
#X obj 81 177 spigot 0;
#X obj 652 37 array define \$0-values-2d 4096;
#X obj 441 680 tabread \$0-values-2d;
#X obj 558 823 tabwrite~ \$0-values-2d;
#X obj 591 401 /~ 4096;
#X obj 134 37 r \$0-choose2d3d;
#X obj 134 61 == 0;
#X obj 589 737 perlin_3d~ 6 -seed 42;
#X obj 81 299 translateXYZ -6.5 -6.5 -2.4;
#X obj 702 667 r \$0-seed;
#X obj 259 37 r \$0-gemstate;
#X obj 190 177 switch~ 4096 1 4;
#X obj 190 152 &&;
#X obj 190 120 t b f;
#X obj 81 152 gemhead;
#X connect 0 0 12 0;
#X connect 1 0 14 0;
#X connect 2 0 3 0;
#X connect 3 1 47 0;
#X connect 4 0 2 0;
#X connect 4 1 0 1;
#X connect 5 0 20 0;
#X connect 6 0 21 0;
#X connect 7 0 8 0;
#X connect 8 1 48 0;
#X connect 9 0 7 0;
#X connect 9 1 5 1;
#X connect 10 0 9 0;
#X connect 11 0 15 0;
#X connect 11 0 24 0;
#X connect 12 0 10 0;
#X connect 13 0 16 0;
#X connect 13 0 46 0;
#X connect 14 0 0 0;
#X connect 14 1 13 0;
#X connect 15 0 11 1;
#X connect 16 0 13 1;
#X connect 17 0 38 0;
#X connect 18 0 6 0;
#X connect 18 1 22 0;
#X connect 19 0 1 0;
#X connect 19 1 23 0;
#X connect 20 0 17 0;
#X connect 21 0 5 0;
#X connect 21 1 11 0;
#X connect 22 0 11 1;
#X connect 23 0 13 1;
#X connect 24 0 60 0;
#X connect 25 0 26 1;
#X connect 26 0 27 0;
#X connect 27 0 43 0;
#X connect 29 0 44 0;
#X connect 29 0 62 0;
#X connect 30 0 39 0;
#X connect 31 0 40 0;
#X connect 31 0 45 0;
#X connect 32 0 37 0;
#X connect 33 0 36 0;
#X connect 34 0 35 0;
#X connect 35 0 61 0;
#X connect 36 0 65 0;
#X connect 37 0 65 1;
#X connect 38 0 57 0;
#X connect 39 0 33 0;
#X connect 40 0 32 0;
#X connect 42 0 26 0;
#X connect 43 0 29 0;
#X connect 44 0 31 0;
#X connect 45 0 30 1;
#X connect 46 0 24 1;
#X connect 47 0 19 0;
#X connect 48 0 18 0;
#X connect 49 0 32 1;
#X connect 49 0 33 1;
#X connect 50 0 36 1;
#X connect 51 0 37 1;
#X connect 52 0 65 2;
#X connect 53 0 65 3;
#X connect 54 0 25 0;
#X connect 55 0 61 0;
#X connect 55 1 42 0;
#X connect 56 0 55 0;
#X connect 58 0 66 0;
#X connect 60 0 17 4;
#X connect 62 0 30 0;
#X connect 63 0 64 0;
#X connect 64 0 58 1;
#X connect 64 0 56 0;
#X connect 64 0 70 0;
#X connect 65 0 34 0;
#X connect 66 0 4 0;
#X connect 67 0 65 0;
#X connect 68 0 71 0;
#X connect 70 0 69 0;
#X connect 71 0 70 0;
#X connect 71 1 70 1;
#X connect 72 0 58 0;
#X restore 55 82 pd visualize_2d;
#N canvas 332 36 1290 931 visualize_3d 0;
#X obj 296 593 gemlist;
#X obj 296 498 until;
#X obj 221 390 route gem_state;
#X obj 221 412 route float;
#X obj 221 368 t a a;
#X obj 472 593 gemlist;
#X obj 492 492 until;
#X obj 418 388 route gem_state;
#X obj 418 410 route float;
#X obj 418 366 t a a;
#X obj 296 639 separator;
#X obj 524 539 f;
#X obj 296 616 translateXYZ 0.2 0 0;
#X obj 328 545 f;
#X obj 296 521 t b b;
#X obj 553 539 + 1;
#X obj 357 545 + 1;
#X obj 492 456 t f b;
#X obj 296 459 t f b;
#X obj 472 616 translateXYZ 0 0.2 0;
#X obj 492 515 t b b;
#X obj 542 516 f 0;
#X obj 346 522 f 0;
#X obj 189 133 spigot 0;
#X obj 670 593 gemlist;
#X obj 690 492 until;
#X obj 616 388 route gem_state;
#X obj 616 410 route float;
#X obj 616 366 t a a;
#X obj 722 539 f;
#X obj 751 539 + 1;
#X obj 690 456 t f b;
#X obj 690 515 t b b;
#X obj 740 516 f 0;
#X obj 779 678 +;
#X obj 779 770 tabread \$0-values-3d;
#X obj 472 639 separator;
#X obj 907 39 array define \$0-values-3d 4096;
#X obj 797 655 * 16;
#X obj 779 745 +;
#X obj 797 722 * 256;
#X obj 670 616 translateXYZ 0 0 0.2;
#X obj 379 102 bang~;
#X obj 379 126 f;
#X obj 221 340 translateXYZ -1.7 -1.7 -1.7;
#X obj 407 126 + 1;
#X obj 85 587 tgl 19 0 empty empty empty 0 -10 0 12 #fcfcfc #000000 #000000 0 1;
#X obj 61 620 world_light;
#X obj 221 313 rotateXYZ 10 20 0;
#X obj 437 209 cos;
#X obj 437 267 + 5;
#X obj 990 181 samplerate~;
#X obj 940 205 /;
#X obj 940 229 * 1000;
#X text 992 228 ms;
#X obj 940 277 line~;
#X text 969 205 duration in s;
#X obj 940 181 f 4096;
#X msg 940 253 0 \, 4096 \$1;
#X obj 1111 672 r \$0-persistence;
#X obj 989 158 loadbang;
#X obj 908 145 t b b;
#X obj 908 865 tabwrite~ \$0-values-3d;
#X msg 295 436 16;
#X msg 492 433 16;
#X msg 689 433 16;
#X obj 670 764 colorRGB 1 1 1;
#X obj 939 831 clip~ 0 1;
#X obj 941 461 -~;
#X obj 940 341 /~ 4096;
#X obj 1013 341 /~ 256;
#X obj 1013 365 wrap~;
#X obj 958 437 /~ 16;
#X obj 1089 341 /~ 16;
#X obj 1014 459 -~;
#X obj 1089 365 wrap~;
#X obj 1032 434 /~ 16;
#X obj 437 238 * 15;
#X obj 1099 463 r \$0-scale;
#X obj 957 607 r \$0-xoffset;
#X obj 1050 607 r \$0-yoffset;
#X obj 1142 608 r \$0-zoffset;
#X obj 1050 578 *~;
#X obj 995 578 *~;
#X obj 940 579 *~;
#X obj 940 520 -~ 0.5;
#X obj 998 521 -~ 0.5;
#X obj 1059 522 -~ 0.5;
#X obj 939 641 +~;
#X obj 994 640 +~;
#X obj 1049 640 +~;
#X obj 908 122 metro 1 10 persec;
#X obj 189 161 t a a;
#X obj 61 503 rotateXYZ -20 -45 0;
#X obj 221 185 separator;
#X obj 380 39 r \$0-choose2d3d;
#X obj 380 62 == 1;
#X obj 59 39 r \$0-gemstate;
#X obj 939 702 perlin_3d~ 4 0.8 -seed 42 normalize;
#X obj 759 805 * 0.3;
#X obj 670 840 sphere 0.1 5;
#X obj 379 209 +;
#X obj 615 178 spigot;
#X obj 677 178 spigot;
#X obj 221 284 translateXYZ 0 0 -5;
#X obj 437 294 +;
#X obj 716 119 t f f;
#X obj 748 153 change;
#X obj 677 232 -;
#X obj 633 205 f;
#X obj 748 178 sel 1;
#X obj 695 205 f;
#X obj 221 209 diffuse 2 2 2;
#X obj 221 256 ambientRGB 2 2 2;
#X obj 677 294 +;
#X obj 695 260 f;
#X obj 615 232 -;
#X obj 615 294 +;
#X obj 633 260 f;
#X obj 615 39 gemmouse 360 360;
#A saved init;
#X obj 952 676 r \$0-seed;
#X obj 379 150 * 0.01;
#X obj 437 150 * 0.001;
#X obj 59 156 &&;
#X obj 59 127 t b f;
#X obj 59 187 switch~;
#X obj 189 106 gemhead;
#X connect 0 0 12 0;
#X connect 1 0 14 0;
#X connect 2 0 3 0;
#X connect 3 1 63 0;
#X connect 4 0 2 0;
#X connect 4 1 0 1;
#X connect 5 0 19 0;
#X connect 6 0 20 0;
#X connect 7 0 8 0;
#X connect 8 1 64 0;
#X connect 9 0 7 0;
#X connect 9 1 5 1;
#X connect 10 0 9 0;
#X connect 11 0 15 0;
#X connect 11 0 38 0;
#X connect 12 0 10 0;
#X connect 13 0 16 0;
#X connect 13 0 40 0;
#X connect 14 0 0 0;
#X connect 14 1 13 0;
#X connect 15 0 11 1;
#X connect 16 0 13 1;
#X connect 17 0 6 0;
#X connect 17 1 21 0;
#X connect 18 0 1 0;
#X connect 18 1 22 0;
#X connect 19 0 36 0;
#X connect 20 0 5 0;
#X connect 20 1 11 0;
#X connect 21 0 11 1;
#X connect 22 0 13 1;
#X connect 23 0 92 0;
#X connect 24 0 41 0;
#X connect 25 0 32 0;
#X connect 26 0 27 0;
#X connect 27 1 65 0;
#X connect 28 0 26 0;
#X connect 28 1 24 1;
#X connect 29 0 30 0;
#X connect 29 0 34 0;
#X connect 30 0 29 1;
#X connect 31 0 25 0;
#X connect 31 1 33 0;
#X connect 32 0 24 0;
#X connect 32 1 29 0;
#X connect 33 0 29 1;
#X connect 34 0 39 0;
#X connect 35 0 99 0;
#X connect 36 0 28 0;
#X connect 38 0 34 1;
#X connect 39 0 35 0;
#X connect 40 0 39 1;
#X connect 41 0 66 0;
#X connect 42 0 43 0;
#X connect 43 0 45 0;
#X connect 43 0 121 0;
#X connect 43 0 122 0;
#X connect 44 0 4 0;
#X connect 45 0 43 1;
#X connect 46 0 47 0;
#X connect 48 0 44 0;
#X connect 49 0 77 0;
#X connect 50 0 105 0;
#X connect 51 0 52 1;
#X connect 52 0 53 0;
#X connect 53 0 58 0;
#X connect 55 0 69 0;
#X connect 55 0 70 0;
#X connect 55 0 73 0;
#X connect 57 0 52 0;
#X connect 58 0 55 0;
#X connect 59 0 98 3;
#X connect 60 0 51 0;
#X connect 61 0 62 0;
#X connect 61 1 57 0;
#X connect 63 0 18 0;
#X connect 64 0 17 0;
#X connect 65 0 31 0;
#X connect 66 0 100 0;
#X connect 67 0 62 0;
#X connect 68 0 85 0;
#X connect 69 0 68 0;
#X connect 70 0 71 0;
#X connect 71 0 72 0;
#X connect 71 0 74 0;
#X connect 72 0 68 1;
#X connect 73 0 75 0;
#X connect 74 0 86 0;
#X connect 75 0 76 0;
#X connect 75 0 87 0;
#X connect 76 0 74 1;
#X connect 77 0 50 0;
#X connect 78 0 82 1;
#X connect 78 0 83 1;
#X connect 78 0 84 1;
#X connect 79 0 88 1;
#X connect 80 0 89 1;
#X connect 81 0 90 1;
#X connect 82 0 90 0;
#X connect 83 0 89 0;
#X connect 84 0 88 0;
#X connect 85 0 84 0;
#X connect 86 0 83 0;
#X connect 87 0 82 0;
#X connect 88 0 98 0;
#X connect 89 0 98 1;
#X connect 90 0 98 2;
#X connect 91 0 61 0;
#X connect 92 0 93 0;
#X connect 92 1 94 0;
#X connect 93 0 47 0;
#X connect 94 0 112 0;
#X connect 95 0 96 0;
#X connect 96 0 91 0;
#X connect 96 0 46 0;
#X connect 96 0 123 0;
#X connect 96 0 23 1;
#X connect 97 0 124 0;
#X connect 98 0 67 0;
#X connect 99 0 100 1;
#X connect 101 0 48 2;
#X connect 102 0 116 0;
#X connect 103 0 108 0;
#X connect 104 0 48 0;
#X connect 105 0 48 1;
#X connect 106 0 102 1;
#X connect 106 0 103 1;
#X connect 106 1 107 0;
#X connect 107 0 110 0;
#X connect 108 0 114 0;
#X connect 109 0 116 1;
#X connect 110 0 111 0;
#X connect 110 0 109 0;
#X connect 110 0 115 0;
#X connect 110 0 118 0;
#X connect 111 0 108 1;
#X connect 112 0 113 0;
#X connect 113 0 104 0;
#X connect 114 0 115 1;
#X connect 114 0 105 1;
#X connect 115 0 114 1;
#X connect 116 0 117 0;
#X connect 117 0 118 1;
#X connect 117 0 101 1;
#X connect 118 0 117 1;
#X connect 119 0 102 0;
#X connect 119 0 109 1;
#X connect 119 1 103 0;
#X connect 119 1 111 1;
#X connect 119 2 106 0;
#X connect 120 0 98 0;
#X connect 121 0 101 0;
#X connect 122 0 49 0;
#X connect 123 0 125 0;
#X connect 124 0 123 0;
#X connect 124 1 123 1;
#X connect 126 0 23 0;
#X restore 55 112 pd visualize_3d;
#N canvas 589 174 827 687 gemwin 0;
#X msg 76 553 0 \, destroy;
#X obj 53 277 sel 1 0;
#X obj 194 433 tgl 19 1 empty empty empty 0 -10 0 12 #fcfcfc #000000 #000000 0 1;
#X msg 194 555 lighting \$1;
#X obj 53 42 r \$0-gemwin;
#X obj 156 42 r \$0-page;
#X obj 156 87 == 1;
#X obj 194 409 r \$0-choose2d3d;
#X obj 194 457 f;
#X obj 104 409 t a b;
#X obj 53 237 t f f;
#X obj 116 277 s \$0-gemstate;
#X msg 319 586 perspec -1 1 -1 1 4 50;
#X msg 297 557 perspec -1 1 -1 1 1 20;
#X obj 297 522 sel 0 1;
#X msg 247 308 offset \$1 \$2;
#X obj 247 218 unpack;
#X obj 247 277 pack;
#X obj 247 243 + 965;
#X obj 291 243 + 439;
#X obj 247 194 else/canvas.bounds 3;
#X msg 53 346 reset \, dimen 320 320 \, offset 1236 483 \, border 0 \, topmost 1 \, title perlin_3d~ \, color 0 0 0 \, create \, 1, f 101;
#X obj 53 172 &&;
#X obj 63 142 t b f;
#X obj 53 205 change 0;
#X obj 104 609 gemwin 40;
#X connect 0 0 25 0;
#X connect 1 0 21 0;
#X connect 1 1 0 0;
#X connect 2 0 8 0;
#X connect 3 0 25 0;
#X connect 4 0 22 0;
#X connect 5 0 6 0;
#X connect 6 0 23 0;
#X connect 7 0 2 0;
#X connect 8 0 3 0;
#X connect 8 0 14 0;
#X connect 9 0 25 0;
#X connect 9 1 8 0;
#X connect 10 0 1 0;
#X connect 10 1 11 0;
#X connect 12 0 25 0;
#X connect 13 0 25 0;
#X connect 14 0 13 0;
#X connect 14 1 12 0;
#X connect 15 0 25 0;
#X connect 16 0 18 0;
#X connect 16 1 19 0;
#X connect 17 0 15 0;
#X connect 18 0 17 0;
#X connect 19 0 17 1;
#X connect 20 0 16 0;
#X connect 21 0 9 0;
#X connect 22 0 24 0;
#X connect 23 0 22 0;
#X connect 23 1 22 1;
#X connect 24 0 10 0;
#X restore 55 52 pd gemwin;
#X obj 54 275 r \$0-scale;
#X obj 54 299 makefilename %.2f;
#X obj 54 347 s \$0-scale-receive;
#X obj 252 299 makefilename %.2f;
#X obj 412 299 makefilename %.2f;
#X obj 572 299 makefilename %.2f;
#X obj 732 299 makefilename %.2f;
#X obj 252 275 r \$0-xoffset;
#X obj 732 275 r \$0-persistence;
#X obj 572 275 r \$0-zoffset;
#X obj 412 275 r \$0-yoffset;
#X obj 412 347 s \$0-yoffset-receive;
#X obj 572 347 s \$0-zoffset-receive;
#X obj 252 347 s \$0-xoffset-receive;
#X obj 732 347 s \$0-persistence-receive;
#X msg 252 323 label x-offset:\\\ \$1;
#X msg 412 323 label y-offset:\\\ \$1;
#X msg 572 323 label z-offset:\\\ \$1;
#X msg 732 323 label persistence:\\\ \$1;
#X msg 54 323 label visible\\\ range:\\\ \$1;
#X obj 613 211 snapshot~;
#X obj 621 187 bang~;
#X obj 612 157 *~ 256;
#X obj 613 241 spigot;
#X obj 613 132 phasor~ 0.0005;
#X obj 708 49 r \$0-animate-z;
#X obj 708 73 sel 1;
#X msg 708 97 0;
#X obj 57 414 r \$0-2d3d-preset-0;
#X obj 103 501 s \$0-scale-receive;
#X obj 80 559 s \$0-persistence-receive;
#X obj 355 500 s \$0-scale-receive;
#X obj 332 558 s \$0-persistence-receive;
#X obj 57 616 s \$0-animate-z-receive;
#X obj 309 616 s \$0-animate-z-receive;
#X obj 309 413 r \$0-2d3d-preset-1;
#X obj 585 500 s \$0-scale-receive;
#X obj 562 558 s \$0-persistence-receive;
#X obj 539 616 s \$0-animate-z-receive;
#X obj 539 413 r \$0-2d3d-preset-2;
#X obj 825 500 s \$0-scale-receive;
#X obj 802 558 s \$0-persistence-receive;
#X obj 779 616 s \$0-animate-z-receive;
#X obj 779 413 r \$0-2d3d-preset-3;
#X obj 57 438 t b b b;
#X obj 309 437 t b b b;
#X obj 539 437 t b b b;
#X obj 779 437 t b b b;
#X obj 57 592 f 1;
#X obj 309 592 f 1;
#X obj 355 476 f 2;
#X obj 562 534 f 0;
#X obj 539 592 f 1;
#X obj 779 592 f 1;
#X obj 103 477 f 0.1;
#X obj 825 476 f 256;
#X obj 80 535 f 2;
#X obj 332 534 f 0.7;
#X obj 585 476 f 2;
#X obj 802 534 f 2;
#X connect 4 0 5 0;
#X connect 5 0 23 0;
#X connect 7 0 19 0;
#X connect 8 0 20 0;
#X connect 9 0 21 0;
#X connect 10 0 22 0;
#X connect 11 0 7 0;
#X connect 12 0 10 0;
#X connect 13 0 9 0;
#X connect 14 0 8 0;
#X connect 19 0 17 0;
#X connect 20 0 15 0;
#X connect 21 0 16 0;
#X connect 22 0 18 0;
#X connect 23 0 6 0;
#X connect 24 0 27 0;
#X connect 25 0 24 0;
#X connect 26 0 24 0;
#X connect 27 0 16 0;
#X connect 28 0 26 0;
#X connect 29 0 27 1;
#X connect 29 0 30 0;
#X connect 30 0 31 0;
#X connect 31 0 28 1;
#X connect 32 0 48 0;
#X connect 39 0 49 0;
#X connect 43 0 50 0;
#X connect 47 0 51 0;
#X connect 48 0 52 0;
#X connect 48 1 60 0;
#X connect 48 2 58 0;
#X connect 49 0 53 0;
#X connect 49 1 61 0;
#X connect 49 2 54 0;
#X connect 50 0 56 0;
#X connect 50 1 55 0;
#X connect 50 2 62 0;
#X connect 51 0 57 0;
#X connect 51 1 63 0;
#X connect 51 2 59 0;
#X connect 52 0 37 0;
#X connect 53 0 38 0;
#X connect 54 0 35 0;
#X connect 55 0 41 0;
#X connect 56 0 42 0;
#X connect 57 0 46 0;
#X connect 58 0 33 0;
#X connect 59 0 44 0;
#X connect 60 0 34 0;
#X connect 61 0 36 0;
#X connect 62 0 40 0;
#X connect 63 0 45 0;
#X restore 1383 884 pd run_page1;
#X text 13 151 In a visual application \, these criterias allow to e.g. generate a landscape based on a 2D noise (using the values as a heightmap) and animate it with the 3rd input dimension. The 3D coordinates can also directly get mapped to generate cave systems or clouds (or a sponge structure or whatever) - and everything can be calculated right when it gets displayed (since values are deterministic for every coordinate \, there's no need to precalculate complete scene data)., f 57;
#X obj 529 1022 bng 19 250 50 0 \$0-2d3d-preset-0 \$0_ close-up\,\ high\ persistence 24 10 0 12 #c6ffc7 #000000 #000000;
#X obj 529 1058 bng 19 250 50 0 \$0-2d3d-preset-1 \$0_ medium\ persistence\ and\ distance 24 10 0 12 #c6ffc7 #000000 #000000;
#X obj 529 1094 bng 19 250 50 0 \$0-2d3d-preset-2 \$0_ no\ persistence\ (1\ octave) 24 10 0 12 #c6ffc7 #000000 #000000;
#X text 13 653 While the previous graphs showed the values for a range of x-coordinates \, Perlin noise visually becomes a lot more interesting in 2d and 3d visualizations. This is also what it was originally intended for., f 57;
#X text 13 14 1/3 | DETAILED DESCRIPTION - Dimensions \, octaves and persistence, f 64;
#X text 13 1214 3/3 | EXAMPLES / AUDIO APPLICATIONS;
#X text 1763 1809 x <- dig here;
#N canvas 491 -872 872 551 run_page1_init 0;
#X obj 125 240 s \$0-scale-receive;
#X obj 125 216 f 4;
#X obj 107 275 f 0;
#X obj 107 299 s \$0-xoffset-receive;
#X obj 90 333 f 0;
#X obj 90 357 s \$0-yoffset-receive;
#X obj 72 392 f 0;
#X obj 72 416 s \$0-zoffset-receive;
#X obj 55 474 s \$0-persistence-receive;
#X obj 55 450 f 0.5;
#X obj 55 45 r \$0-page;
#X obj 55 70 sel 1;
#X obj 143 155 f 0;
#X obj 143 179 s \$0-choose2d3d-receive;
#X msg 544 155 seed 42;
#X msg 395 179 seed \$1;
#X obj 395 155 random 2.14748e+09;
#X obj 395 119 r \$0-reseed;
#X obj 544 119 r \$0-seed42;
#X obj 395 238 s \$0-seed;
#X obj 398 357 r \$0-gemstate;
#X obj 398 381 sel 1;
#X obj 398 450 f 1;
#X obj 398 474 s \$0-animate-z-receive;
#X obj 55 119 t b b b b b b;
#X connect 1 0 0 0;
#X connect 2 0 3 0;
#X connect 4 0 5 0;
#X connect 6 0 7 0;
#X connect 9 0 8 0;
#X connect 10 0 11 0;
#X connect 11 0 24 0;
#X connect 12 0 13 0;
#X connect 14 0 19 0;
#X connect 15 0 19 0;
#X connect 16 0 15 0;
#X connect 17 0 16 0;
#X connect 18 0 14 0;
#X connect 20 0 21 0;
#X connect 21 0 22 0;
#X connect 22 0 23 0;
#X connect 24 0 9 0;
#X connect 24 1 6 0;
#X connect 24 2 4 0;
#X connect 24 3 2 0;
#X connect 24 4 1 0;
#X connect 24 5 12 0;
#X restore 1383 860 pd run_page1_init;
#X text 895 225 [perlin_3d~] is obviously a 3D noise. The visualization here is plotting the values for a range of x-coordinates. You can see how the graphs change for different y- and z-coordinates., f 57;
#X text 13 53 Perlin noise is a deterministic noise \, which means that it will always generate the same value for a certain input coordinate (based on an initial random permutation of its gradient vectors). It is also a gradient noise \, meaning that for continuous coordinates \, the values are continuous \, too., f 57;
#X text 13 291 The values' continuity is ideal for audio applications and their deterministic property allows to use them for reproducible musical aspects if necessary (or for easily creating variations by reseeding the permutation)., f 57;
#X obj 456 1377 bng 19 250 50 0 \$0-examples-modulation \$0_ load\ example:\ noise\ modulated\ noise 23 10 0 12 #c6ffc7 #000000 #000000;
#X obj 898 1377 bng 19 250 50 0 \$0-examples-voices \$0_ load\ example:\ voice\ imitation 23 10 0 12 #c6ffc7 #000000 #000000;
#X obj 898 1427 bng 19 250 50 0 \$0-examples-trio \$0_ load\ example:\ generative\ musical\ trio 23 10 0 12 #c6ffc7 #000000 #000000;
#X text 13 421 On each dimension \, the values repeat after a range of 256 (which is simply a design decision) - so e.g. an x-input of 77.3 will create the same value as 333.3 (77.3 + 256). You can see this in the visualization here by moving its offset., f 57;
#X text 454 281 In this Pd implementation \, the number of octaves can be chosen freely - although at a certain point \, the additional octaves won't add much detail to the noise anymore (and each additional octave requires more computation time)., f 57;
#X text 895 53 The 'normalize' flag can be used to normalize the sum of all octave weights to 1 (which is useful in the audio context to stay in the range of -1..1)., f 57;
#X text 13 614 2/3 | 2D AND 3D VISUALIZATIONS;
#X obj 529 1130 bng 19 250 50 0 \$0-2d3d-preset-3 \$0_ far\ away\,\ high\ persistence 24 10 0 12 #c6ffc7 #000000 #000000;
#X text 394 913 2d;
#X text 394 933 3d;
#X obj 529 913 bng 19 250 50 0 \$0-reseed \$0_ random\ seed 24 10 0 12 #c6ffc7 #000000 #000000;
#X obj 660 913 bng 19 250 50 0 \$0-seed42 \$0_ seed:\ 42 24 10 0 12 #c6ffc7 #000000 #000000;
#X text 14 913 Switch between 2d an 3d visualization here:;
#X text 527 990 Presets:;
#X text 13 821 In the 3d visualization \, you can drag the view to rotate the camera perspective., f 57;
#X text 13 1337 In order to create audible noise \, the movement obviously needs to have a certain speed (slow versions can otherwise be used to control other parameters like pitch or envelope \, of course). However \, this movement can be non-linear and the speed can vary in any possible way., f 57;
#X obj 51 1480 bng 13 250 50 0 \$0-perlin-loops \$0_ 3\ \ necessarydisorder.wordpress.com 4 7 0 8 #c6ffc7 #000000 #000000;
#X text 13 1253 The basic example above shows a very simple use of perlin_3d~ for creating audible Perlin noise. It's sonifying the values for a steady linear movement through Perlin 3d space with varying persistence (oscillating between 0 and 2)., f 57;
#X obj 941 659 cnv 320 320 320 empty empty empty 20 12 0 14 #f0f0f0 #404040 0;
#X obj 965 807 tgl 19 0 \$0-gemwin empty display\ visualization\ (Gem\ required) 24 10 0 12 #ffc7c6 #000000 #000000 0 1;
#X text 1694 8 November 2022 \, Ben Wesch;
#X text 13 1506 Looping waveforms are also ideal for creating musical sound though \, of course. So this exact way of sampling values with a circular movement can be used here just as well. Open the patch below to see and hear this in action:, f 57;
#X text 895 1667 This is just the beginning and there are probably many more interesting applications. I'd be happy to see and hear other works based on this abstraction (or improved versions \, of course). Have fun! Ben Wesch, f 57;
#X obj 1189 1712 bng 13 250 50 0 \$0-benwes \$0_ ♥ 3 8 0 12 #ff0400 #ff0400 #ffffff;
#N canvas 242 43 1054 800 init 0;
#X obj 913 66 loadbang;
#X msg 913 90 0;
#X obj 913 114 s \$0-page;
#X obj 670 66 r \$0-page-previous;
#X obj 712 90 r \$0-page-next;
#X obj 712 124 f 1;
#X obj 670 90 f -1;
#X obj 670 164 +;
#X obj 700 164 f;
#X obj 730 164 mod 3;
#X obj 730 189 s \$0-page;
#X obj 491 343 s pd-\$0-page;
#X obj 491 211 pack;
#X obj 537 172 f 0;
#X obj 491 124 f 2;
#X obj 491 90 t b f b;
#X obj 491 66 r \$0-page;
#X obj 514 148 * 600;
#X text 913 42 init page;
#X text 672 42 paging interaction;
#X text 490 42 switch page gop;
#X msg 491 248 donecanvasdialog 1 -1 \$1 0 -1 1 1 1330 600 0 \$2 \, dirty 0;
#X msg 536 298 dirty 0;
#X obj 53 66 r \$0-wikipedia-perlin;
#X obj 71 129 r \$0-code-perlin;
#X msg 53 91 browse https://en.wikipedia.org/wiki/Perlin_noise;
#X obj 53 380 pdcontrol;
#X text 52 42 open urls;
#X msg 71 153 browse https://cs.nyu.edu/~perlin/noise/;
#X obj 484 434 r \$0-dsp;
#X msg 484 568 \; pd dsp \$1;
#X text 486 412 turn dsp on/off with top-right toggle;
#X obj 87 192 r \$0-perlin-loops;
#X msg 87 216 browse https://necessarydisorder.wordpress.com/2017/11/15/drawing-from-noise-and-then-making-animated-loopy-gifs-from-there/, f 43;
#X obj 494 463 sel 1;
#X obj 494 532 s \$0-dsp-receive;
#X msg 611 498 color #ffc7c6;
#X msg 494 498 color #ffffff;
#X msg 107 319 browse https://github.com/ben-wes;
#X obj 107 295 r \$0-benwes;
#N canvas 697 -850 426 360 loadbang_if_dsp 0;
#X obj 166 90 snapshot~;
#X obj 57 43 loadbang;
#X obj 57 114 del 20;
#X obj 166 258 outlet;
#X obj 89 222 f 1;
#X obj 57 222 f 0;
#X obj 89 258 switch~;
#X obj 166 43 bang~;
#X obj 166 115 change 0;
#X obj 213 43 sig~ 1;
#X obj 57 67 t b b;
#X obj 200 230 s \$0-dsp-receive;
#X msg 200 186 set \$1;
#X obj 268 162 sel 1;
#X msg 268 186 color #ffffff;
#X connect 0 0 8 0;
#X connect 1 0 10 0;
#X connect 2 0 5 0;
#X connect 4 0 6 0;
#X connect 5 0 6 0;
#X connect 7 0 0 0;
#X connect 8 0 12 0;
#X connect 8 0 3 0;
#X connect 8 0 13 0;
#X connect 9 0 0 0;
#X connect 10 0 2 0;
#X connect 10 1 4 0;
#X connect 12 0 11 0;
#X connect 13 0 14 0;
#X connect 14 0 11 0;
#X restore 53 471 pd loadbang_if_dsp;
#X obj 85 659 s \$0-dsp-receive;
#X obj 67 543 r pd;
#X obj 67 567 route dsp;
#X msg 85 635 set \$1;
#X obj 67 504 s \$0-initial-dsp;
#X obj 53 600 t f f;
#X obj 53 717 s \$0-dsp-state;
#X obj 53 693 pipe 0;
#X text 103 693 delay to next block?;
#X obj 875 692 declare -lib Gem;
#X obj 862 717 declare -path else;
#X connect 0 0 1 0;
#X connect 0 0 22 0;
#X connect 1 0 2 0;
#X connect 3 0 6 0;
#X connect 4 0 5 0;
#X connect 5 0 7 0;
#X connect 6 0 7 0;
#X connect 7 0 8 0;
#X connect 8 0 9 0;
#X connect 9 0 7 1;
#X connect 9 0 10 0;
#X connect 12 0 21 0;
#X connect 13 0 12 0;
#X connect 14 0 12 0;
#X connect 15 0 14 0;
#X connect 15 1 17 0;
#X connect 15 2 13 0;
#X connect 16 0 15 0;
#X connect 17 0 12 1;
#X connect 21 0 11 0;
#X connect 22 0 11 0;
#X connect 23 0 25 0;
#X connect 24 0 28 0;
#X connect 25 0 26 0;
#X connect 28 0 26 0;
#X connect 29 0 30 0;
#X connect 29 0 34 0;
#X connect 32 0 33 0;
#X connect 33 0 26 0;
#X connect 34 0 37 0;
#X connect 34 1 36 0;
#X connect 36 0 35 0;
#X connect 37 0 35 0;
#X connect 38 0 26 0;
#X connect 39 0 38 0;
#X connect 40 0 45 0;
#X connect 40 0 46 0;
#X connect 42 0 43 0;
#X connect 43 0 46 0;
#X connect 44 0 41 0;
#X connect 46 0 48 0;
#X connect 46 1 44 0;
#X connect 46 1 34 0;
#X connect 48 0 47 0;
#X restore 1383 150 pd init;
#X text 454 1253 Similar to frequency modulation (where an oscillator modulates the frequency of another oscillator) \, Perlin noise output can just as well be used to modulate another Perlin noise which modulates another noise... At some point \, the results are hard to predict - but still interesting to listen to. See this example here:, f 57;
#X text 895 1253 Here are two slightly more complex patches playing around with a musical approaches and (rather accidentally generated) voice imitation. In these cases \, Perlin noises are sampled with very slow movements to control all the "compositional parameters" (melodies \, envelopes \, voice pitches \, formant variation):;
#N canvas 764 -894 434 644 run_page2 0;
#X obj 111 454 pdcontrol;
#X msg 111 427 dir;
#X obj 58 514 pack s s;
#X obj 111 397 loadbang;
#X msg 58 545 \; pd open \$1 \$2;
#X obj 111 484 makefilename %s/;
#X text 58 49 open example patches;
#X msg 58 97 perlin_3d~-help.example-circles.pd;
#X msg 137 302 perlin_3d~-help.example-trio.pd;
#X msg 110 233 perlin_3d~-help.example-voices.pd;
#X msg 84 164 perlin_3d~-help.example-modulation.pd;
#X obj 173 547 print;
#X obj 58 73 r \$0-examples-circles;
#X obj 84 140 r \$0-examples-modulation;
#X obj 110 209 r \$0-examples-voices;
#X obj 137 278 r \$0-examples-trio;
#X connect 0 0 5 0;
#X connect 1 0 0 0;
#X connect 2 0 4 0;
#X connect 2 0 11 0;
#X connect 3 0 1 0;
#X connect 5 0 2 1;
#X connect 7 0 2 0;
#X connect 8 0 2 0;
#X connect 9 0 2 0;
#X connect 10 0 2 0;
#X connect 12 0 7 0;
#X connect 13 0 10 0;
#X connect 14 0 9 0;
#X connect 15 0 8 0;
#X restore 1383 1504 pd run_page2;
#X text 13 723 You can activate the visualization on the right (requires Gem to work - which can be installed via Deken) to see a 2d or 3d plot of the values of perlin_3d~. You can switch through the presets or play around with the parameters on the right yourself. All visuals are generated with the perlin_3d~ abstraction., f 57;
#X text 965 839 (ELSE required for dynamic positioning);
#X obj 1383 174 block~ 512 1 1;
#X text 13 1421 A popular application in visual arts is to sample values with a circular movement in Perlin space. This allows to create seamless loops of noise which can be used to e.g. create GIFs with seemingly random patterns that perfectly loop.;
#X coords 0 -1 1 1 1330 600 2 0 0;
#X restore 16 329 pd \$0-page;
#X obj 29 305 bng 24 250 50 0 \$0-page-previous \$0_ ◀ 6 11 0 16 #000000 #404040 #ffffff;
#X obj 61 305 bng 24 250 50 0 \$0-page-next \$0_ ▶ 8 11 0 16 #000000 #404040 #ffffff;
#X obj 1324 19 tgl 14 0 \$0-dsp \$0-dsp-receive DSP\ (required\ for\ visualizations) -202 7 0 10 #ffc7c6 #000000 #000000 0 1;
#X obj 240 200 bng 13 250 50 0 \$0-code-perlin \$0_ 2\ \ nyu.edu 4 7 0 8 #c6ffc7 #000000 #000000;
#X text 27 169 This object is a Pd vanilla implementation of Perlin's improved noise with 3 input dimensions., f 35;
#X text 27 230 It was built to experiment with the algorithm on signal level for generative sound and composition. See detailed explanations below., f 35;
#X text 28 69 WHAT THIS IS;
#X text 315 69 PARAMETERS;
#X msg 692 219 seed;
#X text 689 181 The 1st inlet also accepts the following messages:, f 51;
#X msg 692 246 seed 3;
#X msg 692 273 persistence 0.1;
#X text 690 69 INPUTS / OUTPUTS / MESSAGES;
#X text 731 218 randomly reseeds the gradient permutation;
#X text 744 245 reseeds permutation with given seed;
#X text 808 272 alternative way to set persistence;
#X text 689 137 The outlet signal is the noise value for the given inputs., f 51;
#X text 689 107 All inlets are signal inputs: x \, y \, z \, persistence.;
#X text 312 226 -s(eed) <float> (default is a random seed);
#X text 311 249 -p(ersistence) <float> (default: 0.5);
#X text 311 272 -o(ffset) <float> (default:0 - initial x \, y \, z);
#X text 314 181 You can initialize these additional parameters with either their initials or whole names:, f 47;
#X text 314 107 The number of octaves is expected in the first parameter., f 47;
#X text 314 137 A 'normalize' flag will normalize the output to a maximum of 1, f 47;
#X obj 1097 202 *~;
#X obj 1098 225 dac~;
#X obj 1276 130 +~ 1;
#X obj 1183 130 *~ 256;
#X obj 1097 130 *~ 256;
#X obj 1270 202 tgl 19 0 empty empty play 24 10 0 12 #c6ffc7 #000000 #000000 0 1;
#X obj 1178 202 line~;
#X obj 1127 202 *~ 0.1;
#X msg 1222 202 \$1 99;
#X text 1094 69 BASIC EXAMPLE;
#X text 1093 272 (more examples below on page 3);
#X obj 1276 106 osc~ 0.3;
#X obj 1097 106 phasor~ 1.7;
#X obj 1183 106 phasor~ 0.03;
#X obj 1097 167 perlin_3d~ 8 normalize;
#X connect 30 0 31 0;
#X connect 30 0 31 1;
#X connect 32 0 44 3;
#X connect 33 0 44 1;
#X connect 33 0 44 2;
#X connect 34 0 44 0;
#X connect 35 0 38 0;
#X connect 36 0 37 0;
#X connect 37 0 30 1;
#X connect 38 0 36 0;
#X connect 41 0 32 0;
#X connect 42 0 34 0;
#X connect 43 0 33 0;
#X connect 44 0 30 0;
