#N canvas 40 4 1799 1019 12;
#X obj 641 25 inlet~;
#X obj 250 25 inlet~;
#X text 1575 24 persistance;
#X obj 250 191 wrap~;
#X text 1086 83 multiply by octave factor;
#X obj 642 191 wrap~;
#X obj 672 273 +~ 1;
#X obj 261 319 +~;
#X obj 353 442 +~ 1;
#X obj 753 442 +~ 1;
#X obj 725 191 -~ 1;
#X obj 333 191 -~ 1;
#X obj 386 839 perlin.3d~-lerp;
#X obj 185 757 perlin.3d~-lerp;
#X obj 583 757 perlin.3d~-lerp;
#X obj 774 963 outlet~;
#X obj 1522 963 outlet~;
#X obj 1523 25 inlet~;
#X obj 1053 25 inlet~;
#X obj 1052 191 wrap~;
#X obj 1135 191 -~ 1;
#X obj 156 488 +~;
#X obj 672 319 +~;
#X obj 353 488 +~;
#X obj 553 488 +~;
#X obj 753 488 +~;
#X obj 949 522 +~ 1;
#X obj 1146 522 +~ 1;
#X obj 1346 522 +~ 1;
#X obj 1546 522 +~ 1;
#X obj 977 757 perlin.3d~-lerp;
#X obj 1379 757 perlin.3d~-lerp;
#X obj 1177 839 perlin.3d~-lerp;
#X obj 774 904 perlin.3d~-lerp;
#X obj 1523 150 pow~ \$1;
#X obj 1272 82 pow \$1;
#X msg 1272 57 2;
#X obj 1272 33 loadbang;
#X obj 1053 101 *~;
#X obj 642 101 *~;
#X obj 251 101 *~;
#X obj 1346 545 tabread~ \$2-permutation;
#X obj 1546 545 tabread~ \$2-permutation;
#X obj 1146 545 tabread~ \$2-permutation;
#X obj 949 545 tabread~ \$2-permutation;
#X obj 753 545 tabread~ \$2-permutation;
#X obj 553 545 tabread~ \$2-permutation;
#X obj 353 545 tabread~ \$2-permutation;
#X obj 156 545 tabread~ \$2-permutation;
#X obj 156 465 tabread~ \$2-permutation;
#X obj 353 465 tabread~ \$2-permutation;
#X obj 553 465 tabread~ \$2-permutation;
#X obj 753 465 tabread~ \$2-permutation;
#X obj 672 296 tabread~ \$2-permutation;
#X obj 261 296 tabread~ \$2-permutation;
#X obj 774 934 *~;
#X text 1578 962 total amplitude outlet;
#X text 39 789 Originally based on Raouf Touti's explanations and code on https://rtouti.github.io/graphics/perlin-noise-algorithm, f 59;
#X text 1247 190 Z;
#X text 837 190 Y;
#X text 444 190 X;
#X text 293 190 x;
#X text 301 24 input x;
#X text 692 24 input y;
#X text 1104 24 input z;
#X text 684 190 y;
#X text 1095 190 z;
#X text 782 487 BB = p[B+1]+Z;
#X text 582 487 BA = p[B]+Z;
#X text 701 318 B = p[X+1]+Y;
#X text 289 318 A = p[X ]+Y;
#X text 183 487 AA = p[A]+Z;
#X text 381 487 AB = p[A+1]+Z;
#X text 41 50 args: index \, \$0 of calling patch;
#X text 419 710 u;
#X text 812 802 v;
#X text 1224 872 w;
#X obj 81 651 perlin.3d~-grad \$2;
#X obj 281 651 perlin.3d~-grad \$2;
#X obj 481 651 perlin.3d~-grad \$2;
#X obj 681 651 perlin.3d~-grad \$2;
#X obj 875 651 perlin.3d~-grad \$2;
#X obj 1075 651 perlin.3d~-grad \$2;
#X obj 1275 651 perlin.3d~-grad \$2;
#X obj 1475 651 perlin.3d~-grad \$2;
#X obj 414 119 /~ 256;
#X obj 414 144 wrap~;
#X obj 414 168 *~ 256;
#X obj 414 191 -~;
#X obj 806 144 wrap~;
#X obj 1216 144 wrap~;
#X obj 806 168 *~ 256;
#X obj 1216 168 *~ 256;
#X obj 807 191 -~;
#X obj 1216 191 -~;
#X obj 806 120 /~ 256;
#X obj 1216 120 /~ 256;
#X obj 249 710 perlin.3d~-fade \$2-ease;
#X obj 642 803 perlin.3d~-fade \$2-ease;
#X obj 1053 873 perlin.3d~-fade \$2-ease;
#X text 39 873 expr~ objects replaced in later versions with standard math objects and aligned with Perlin's improved code on https://cs.nyu.edu/~perlin/noise/, f 73;
#X text 39 943 additional helpful explanations can be found on https://www.scratchapixel.com/lessons/procedural-generation-virtual-worlds/perlin-noise-part-2/improved-perlin-noise, f 75;
#X text 1270 190 int in range 0..255;
#X connect 0 0 39 0;
#X connect 1 0 40 0;
#X connect 3 0 11 0;
#X connect 3 0 77 1;
#X connect 3 0 79 1;
#X connect 3 0 81 1;
#X connect 3 0 83 1;
#X connect 3 0 88 1;
#X connect 3 0 97 0;
#X connect 5 0 10 0;
#X connect 5 0 77 2;
#X connect 5 0 78 2;
#X connect 5 0 81 2;
#X connect 5 0 82 2;
#X connect 5 0 93 1;
#X connect 5 0 98 0;
#X connect 6 0 53 0;
#X connect 7 0 8 0;
#X connect 7 0 49 0;
#X connect 8 0 50 0;
#X connect 9 0 52 0;
#X connect 10 0 79 2;
#X connect 10 0 80 2;
#X connect 10 0 83 2;
#X connect 10 0 84 2;
#X connect 11 0 78 1;
#X connect 11 0 80 1;
#X connect 11 0 82 1;
#X connect 11 0 84 1;
#X connect 12 0 33 1;
#X connect 13 0 12 1;
#X connect 14 0 12 2;
#X connect 17 0 34 0;
#X connect 18 0 38 0;
#X connect 19 0 20 0;
#X connect 19 0 77 3;
#X connect 19 0 78 3;
#X connect 19 0 79 3;
#X connect 19 0 80 3;
#X connect 19 0 94 1;
#X connect 19 0 99 0;
#X connect 20 0 81 3;
#X connect 20 0 82 3;
#X connect 20 0 83 3;
#X connect 20 0 84 3;
#X connect 21 0 26 0;
#X connect 21 0 48 0;
#X connect 22 0 9 0;
#X connect 22 0 51 0;
#X connect 23 0 27 0;
#X connect 23 0 47 0;
#X connect 24 0 28 0;
#X connect 24 0 46 0;
#X connect 25 0 29 0;
#X connect 25 0 45 0;
#X connect 26 0 44 0;
#X connect 27 0 43 0;
#X connect 28 0 41 0;
#X connect 29 0 42 0;
#X connect 30 0 32 1;
#X connect 31 0 32 2;
#X connect 32 0 33 2;
#X connect 33 0 55 0;
#X connect 34 0 16 0;
#X connect 34 0 55 1;
#X connect 35 0 38 1;
#X connect 35 0 40 1;
#X connect 35 0 39 1;
#X connect 36 0 35 0;
#X connect 37 0 36 0;
#X connect 38 0 19 0;
#X connect 38 0 96 0;
#X connect 39 0 5 0;
#X connect 39 0 95 0;
#X connect 40 0 3 0;
#X connect 40 0 85 0;
#X connect 41 0 82 0;
#X connect 42 0 84 0;
#X connect 43 0 83 0;
#X connect 44 0 81 0;
#X connect 45 0 80 0;
#X connect 46 0 78 0;
#X connect 47 0 79 0;
#X connect 48 0 77 0;
#X connect 49 0 21 0;
#X connect 50 0 23 0;
#X connect 51 0 24 0;
#X connect 52 0 25 0;
#X connect 53 0 22 0;
#X connect 54 0 7 0;
#X connect 55 0 15 0;
#X connect 77 0 13 1;
#X connect 78 0 13 2;
#X connect 79 0 14 1;
#X connect 80 0 14 2;
#X connect 81 0 30 1;
#X connect 82 0 30 2;
#X connect 83 0 31 1;
#X connect 84 0 31 2;
#X connect 85 0 86 0;
#X connect 86 0 87 0;
#X connect 87 0 88 0;
#X connect 88 0 6 0;
#X connect 88 0 54 0;
#X connect 89 0 91 0;
#X connect 90 0 92 0;
#X connect 91 0 93 0;
#X connect 92 0 94 0;
#X connect 93 0 7 1;
#X connect 93 0 22 1;
#X connect 94 0 25 1;
#X connect 94 0 24 1;
#X connect 94 0 23 1;
#X connect 94 0 21 1;
#X connect 95 0 89 0;
#X connect 96 0 90 0;
#X connect 97 0 13 0;
#X connect 97 0 31 0;
#X connect 97 0 30 0;
#X connect 97 0 14 0;
#X connect 98 0 12 0;
#X connect 98 0 32 0;
#X connect 99 0 33 0;
