#N canvas 432 28 1127 991 12;
#N canvas 1079 -750 348 311 to_int 0;
#X obj 55 56 inlet~;
#X obj 73 134 wrap~;
#X obj 56 160 -~;
#X obj 55 254 outlet~;
#X text 86 160 int signal;
#X obj 56 214 lop~ 1;
#X obj 179 55 inlet;
#X obj 271 115 / 1000;
#X obj 271 139 pow -1;
#X obj 179 82 sel 0;
#X obj 179 115 samplerate~;
#X obj 157 255 outlet~;
#X connect 0 0 1 0;
#X connect 0 0 2 0;
#X connect 1 0 2 1;
#X connect 1 0 11 0;
#X connect 2 0 5 0;
#X connect 5 0 3 0;
#X connect 6 0 9 0;
#X connect 7 0 8 0;
#X connect 8 0 5 1;
#X connect 9 0 10 0;
#X connect 9 1 7 0;
#X connect 10 0 5 1;
#X restore 60 285 pd to_int;
#X obj 59 427 mtof~;
#X obj 58 913 dac~;
#X obj 58 824 *~;
#X obj 83 799 tgl 19 0 empty empty play 24 10 0 12 #c6ffc7 #000000 #000000 0 1;
#X obj 123 166 hsl 162 19 0 2000 0 1 empty empty empty -2 -10 0 12 #fcfcfc #000000 #000000 1900 1;
#X floatatom 120 190 5 0 0 0 - - - 0;
#X obj 140 664 *~ 256;
#X obj 60 465 phasor~;
#X obj 60 584 cos~;
#X obj 108 505 +~ 0.25;
#X obj 108 529 wrap~;
#X obj 108 553 cos~;
#X obj 59 641 *~;
#X obj 107 640 *~;
#X obj 140 640 phasor~ 0.01;
#X obj 167 426 pow~ 7;
#N canvas 463 -1014 1086 621 int_to_scale~ 0;
#X obj 453 60 inlet;
#X obj 294 198 - 1;
#X text 495 59 scale input | last not is "octave" length;
#X obj 876 60 array define \$0-scale;
#X obj 559 171 array size \$0-scale;
#X obj 499 119 list length;
#X obj 508 285 array set \$0-scale;
#X obj 211 282 /~;
#X obj 276 397 *~;
#X obj 79 246 /~;
#X obj 79 60 inlet~;
#X obj 79 270 wrap~;
#X obj 79 294 *~;
#X obj 153 497 +~;
#X obj 154 546 outlet~;
#X floatatom 294 347 5 0 0 0 - - - 0;
#X obj 294 323 array get \$0-scale 0 1;
#X obj 228 308 wrap~;
#X obj 211 333 -~;
#X obj 110 316 bang~;
#X obj 100 340 snapshot~;
#X floatatom 100 364 5 0 0 0 - - - 0;
#X obj 453 83 t b l l;
#X obj 539 224 array size \$0-scale-smooth;
#X obj 539 200 + 3;
#X obj 476 258 t l l;
#X obj 476 315 array set \$0-scale-smooth 1;
#X obj 453 516 array get \$0-scale 0 1;
#X obj 453 540 array set \$0-scale-smooth 0;
#X obj 453 378 t b b;
#X obj 79 437 tabread4~ \$0-scale-smooth;
#X obj 499 146 t f f f f;
#X obj 560 340 t f f;
#X obj 497 465 array set \$0-scale-smooth;
#X obj 827 83 array define \$0-scale-smooth;
#X obj 79 413 +~ 1;
#X obj 485 407 array get \$0-scale 0 2;
#X obj 560 363 - 1;
#X obj 485 489 array set \$0-scale-smooth;
#X obj 485 431 print;
#X obj 572 441 + 2;
#X obj 600 441 + 1;
#X connect 0 0 22 0;
#X connect 1 0 16 0;
#X connect 1 0 7 1;
#X connect 1 0 9 1;
#X connect 1 0 12 1;
#X connect 5 0 31 0;
#X connect 7 0 17 0;
#X connect 7 0 18 0;
#X connect 8 0 13 1;
#X connect 9 0 11 0;
#X connect 10 0 9 0;
#X connect 10 0 7 0;
#X connect 11 0 12 0;
#X connect 12 0 20 0;
#X connect 12 0 35 0;
#X connect 13 0 14 0;
#X connect 16 0 8 1;
#X connect 16 0 15 0;
#X connect 17 0 18 1;
#X connect 18 0 8 0;
#X connect 19 0 20 0;
#X connect 20 0 21 0;
#X connect 22 0 29 0;
#X connect 22 1 25 0;
#X connect 22 2 5 0;
#X connect 24 0 23 0;
#X connect 25 0 26 0;
#X connect 25 1 6 0;
#X connect 27 0 28 0;
#X connect 29 0 27 0;
#X connect 29 1 36 0;
#X connect 30 0 13 0;
#X connect 31 0 1 0;
#X connect 31 1 32 0;
#X connect 31 2 24 0;
#X connect 31 3 4 0;
#X connect 32 0 37 0;
#X connect 32 1 40 0;
#X connect 32 1 41 0;
#X connect 35 0 30 0;
#X connect 36 0 33 0;
#X connect 36 0 38 0;
#X connect 36 0 39 0;
#X connect 37 0 36 0;
#X connect 40 0 38 1;
#X connect 41 0 33 1;
#X restore 60 327 pd int_to_scale~;
#X obj 61 73 *~ 256;
#X msg 109 96 0.5;
#X obj 61 180 *~ 6;
#X obj 61 132 perlin.3d~ 3 0.7;
#X obj 61 157 +~ 0;
#X obj 167 451 *~ 0.2;
#X obj 167 475 +~ 0.3;
#N canvas 1079 -750 348 311 to_int 0;
#X obj 55 56 inlet~;
#X obj 73 134 wrap~;
#X obj 56 160 -~;
#X obj 55 254 outlet~;
#X text 86 160 int signal;
#X obj 56 214 lop~ 1;
#X obj 179 55 inlet;
#X obj 271 115 / 1000;
#X obj 271 139 pow -1;
#X obj 179 82 sel 0;
#X obj 179 115 samplerate~;
#X obj 157 255 outlet~;
#X connect 0 0 1 0;
#X connect 0 0 2 0;
#X connect 1 0 2 1;
#X connect 1 0 11 0;
#X connect 2 0 5 0;
#X connect 5 0 3 0;
#X connect 6 0 9 0;
#X connect 7 0 8 0;
#X connect 8 0 5 1;
#X connect 9 0 10 0;
#X connect 9 1 7 0;
#X connect 10 0 5 1;
#X restore 405 285 pd to_int;
#X obj 404 427 mtof~;
#X obj 468 166 hsl 162 19 0 2000 0 1 empty empty empty -2 -10 0 12 #fcfcfc #000000 #000000 900 1;
#X floatatom 465 190 5 0 0 0 - - - 0;
#X obj 485 664 *~ 256;
#X obj 405 465 phasor~;
#X obj 405 584 cos~;
#X obj 453 505 +~ 0.25;
#X obj 453 529 wrap~;
#X obj 453 553 cos~;
#X obj 404 641 *~;
#X obj 452 640 *~;
#X obj 520 426 pow~ 7;
#N canvas 463 -1014 1086 621 int_to_scale~ 0;
#X obj 453 60 inlet;
#X obj 294 198 - 1;
#X text 495 59 scale input | last not is "octave" length;
#X obj 876 60 array define \$0-scale;
#X obj 559 171 array size \$0-scale;
#X obj 499 119 list length;
#X obj 508 285 array set \$0-scale;
#X obj 211 282 /~;
#X obj 276 397 *~;
#X obj 79 246 /~;
#X obj 79 60 inlet~;
#X obj 79 270 wrap~;
#X obj 79 294 *~;
#X obj 153 497 +~;
#X obj 154 546 outlet~;
#X floatatom 294 347 5 0 0 0 - - - 0;
#X obj 294 323 array get \$0-scale 0 1;
#X obj 228 308 wrap~;
#X obj 211 333 -~;
#X obj 110 316 bang~;
#X obj 100 340 snapshot~;
#X floatatom 100 364 5 0 0 0 - - - 0;
#X obj 453 83 t b l l;
#X obj 539 224 array size \$0-scale-smooth;
#X obj 539 200 + 3;
#X obj 476 258 t l l;
#X obj 476 315 array set \$0-scale-smooth 1;
#X obj 453 516 array get \$0-scale 0 1;
#X obj 453 540 array set \$0-scale-smooth 0;
#X obj 453 378 t b b;
#X obj 79 437 tabread4~ \$0-scale-smooth;
#X obj 499 146 t f f f f;
#X obj 560 340 t f f;
#X obj 497 465 array set \$0-scale-smooth;
#X obj 827 83 array define \$0-scale-smooth;
#X obj 79 413 +~ 1;
#X obj 485 407 array get \$0-scale 0 2;
#X obj 560 363 - 1;
#X obj 485 489 array set \$0-scale-smooth;
#X obj 485 431 print;
#X obj 572 441 + 2;
#X obj 600 441 + 1;
#X connect 0 0 22 0;
#X connect 1 0 16 0;
#X connect 1 0 7 1;
#X connect 1 0 9 1;
#X connect 1 0 12 1;
#X connect 5 0 31 0;
#X connect 7 0 17 0;
#X connect 7 0 18 0;
#X connect 8 0 13 1;
#X connect 9 0 11 0;
#X connect 10 0 9 0;
#X connect 10 0 7 0;
#X connect 11 0 12 0;
#X connect 12 0 20 0;
#X connect 12 0 35 0;
#X connect 13 0 14 0;
#X connect 16 0 8 1;
#X connect 16 0 15 0;
#X connect 17 0 18 1;
#X connect 18 0 8 0;
#X connect 19 0 20 0;
#X connect 20 0 21 0;
#X connect 22 0 29 0;
#X connect 22 1 25 0;
#X connect 22 2 5 0;
#X connect 24 0 23 0;
#X connect 25 0 26 0;
#X connect 25 1 6 0;
#X connect 27 0 28 0;
#X connect 29 0 27 0;
#X connect 29 1 36 0;
#X connect 30 0 13 0;
#X connect 31 0 1 0;
#X connect 31 1 32 0;
#X connect 31 2 24 0;
#X connect 31 3 4 0;
#X connect 32 0 37 0;
#X connect 32 1 40 0;
#X connect 32 1 41 0;
#X connect 35 0 30 0;
#X connect 36 0 33 0;
#X connect 36 0 38 0;
#X connect 36 0 39 0;
#X connect 37 0 36 0;
#X connect 40 0 38 1;
#X connect 41 0 33 1;
#X restore 405 327 pd int_to_scale~;
#X obj 406 73 *~ 256;
#X msg 454 96 0.5;
#X obj 405 157 +~ 0;
#X obj 520 451 *~ 0.2;
#X obj 520 475 +~ 0.3;
#N canvas 1079 -750 348 311 to_int 0;
#X obj 55 56 inlet~;
#X obj 73 134 wrap~;
#X obj 56 160 -~;
#X obj 55 254 outlet~;
#X text 86 160 int signal;
#X obj 56 214 lop~ 1;
#X obj 179 55 inlet;
#X obj 271 115 / 1000;
#X obj 271 139 pow -1;
#X obj 179 82 sel 0;
#X obj 179 115 samplerate~;
#X obj 157 255 outlet~;
#X connect 0 0 1 0;
#X connect 0 0 2 0;
#X connect 1 0 2 1;
#X connect 1 0 11 0;
#X connect 2 0 5 0;
#X connect 5 0 3 0;
#X connect 6 0 9 0;
#X connect 7 0 8 0;
#X connect 8 0 5 1;
#X connect 9 0 10 0;
#X connect 9 1 7 0;
#X connect 10 0 5 1;
#X restore 758 285 pd to_int;
#X obj 757 427 mtof~;
#X obj 821 166 hsl 162 19 0 2000 0 1 empty empty empty -2 -10 0 12 #fcfcfc #000000 #000000 4000 1;
#X floatatom 818 190 5 0 0 0 - - - 0;
#X obj 838 664 *~ 256;
#X obj 758 465 phasor~;
#X obj 758 584 cos~;
#X obj 806 505 +~ 0.25;
#X obj 806 529 wrap~;
#X obj 806 553 cos~;
#X obj 757 641 *~;
#X obj 805 640 *~;
#X obj 867 426 pow~ 7;
#N canvas 463 -1014 1086 621 int_to_scale~ 0;
#X obj 453 60 inlet;
#X obj 294 198 - 1;
#X text 495 59 scale input | last not is "octave" length;
#X obj 876 60 array define \$0-scale;
#X obj 559 171 array size \$0-scale;
#X obj 499 119 list length;
#X obj 508 285 array set \$0-scale;
#X obj 211 282 /~;
#X obj 276 397 *~;
#X obj 79 246 /~;
#X obj 79 60 inlet~;
#X obj 79 270 wrap~;
#X obj 79 294 *~;
#X obj 153 497 +~;
#X obj 154 546 outlet~;
#X floatatom 294 347 5 0 0 0 - - - 0;
#X obj 294 323 array get \$0-scale 0 1;
#X obj 228 308 wrap~;
#X obj 211 333 -~;
#X obj 110 316 bang~;
#X obj 100 340 snapshot~;
#X floatatom 100 364 5 0 0 0 - - - 0;
#X obj 453 83 t b l l;
#X obj 539 224 array size \$0-scale-smooth;
#X obj 539 200 + 3;
#X obj 476 258 t l l;
#X obj 476 315 array set \$0-scale-smooth 1;
#X obj 453 516 array get \$0-scale 0 1;
#X obj 453 540 array set \$0-scale-smooth 0;
#X obj 453 378 t b b;
#X obj 79 437 tabread4~ \$0-scale-smooth;
#X obj 499 146 t f f f f;
#X obj 560 340 t f f;
#X obj 497 465 array set \$0-scale-smooth;
#X obj 827 83 array define \$0-scale-smooth;
#X obj 79 413 +~ 1;
#X obj 485 407 array get \$0-scale 0 2;
#X obj 560 363 - 1;
#X obj 485 489 array set \$0-scale-smooth;
#X obj 485 431 print;
#X obj 572 441 + 2;
#X obj 600 441 + 1;
#X connect 0 0 22 0;
#X connect 1 0 16 0;
#X connect 1 0 7 1;
#X connect 1 0 9 1;
#X connect 1 0 12 1;
#X connect 5 0 31 0;
#X connect 7 0 17 0;
#X connect 7 0 18 0;
#X connect 8 0 13 1;
#X connect 9 0 11 0;
#X connect 10 0 9 0;
#X connect 10 0 7 0;
#X connect 11 0 12 0;
#X connect 12 0 20 0;
#X connect 12 0 35 0;
#X connect 13 0 14 0;
#X connect 16 0 8 1;
#X connect 16 0 15 0;
#X connect 17 0 18 1;
#X connect 18 0 8 0;
#X connect 19 0 20 0;
#X connect 20 0 21 0;
#X connect 22 0 29 0;
#X connect 22 1 25 0;
#X connect 22 2 5 0;
#X connect 24 0 23 0;
#X connect 25 0 26 0;
#X connect 25 1 6 0;
#X connect 27 0 28 0;
#X connect 29 0 27 0;
#X connect 29 1 36 0;
#X connect 30 0 13 0;
#X connect 31 0 1 0;
#X connect 31 1 32 0;
#X connect 31 2 24 0;
#X connect 31 3 4 0;
#X connect 32 0 37 0;
#X connect 32 1 40 0;
#X connect 32 1 41 0;
#X connect 35 0 30 0;
#X connect 36 0 33 0;
#X connect 36 0 38 0;
#X connect 36 0 39 0;
#X connect 37 0 36 0;
#X connect 40 0 38 1;
#X connect 41 0 33 1;
#X restore 758 327 pd int_to_scale~;
#X obj 759 73 *~ 256;
#X msg 807 96 0.5;
#X obj 759 157 +~ 0;
#X obj 867 451 *~ 0.2;
#X obj 218 426 *~ 256;
#X msg 270 456 0.5;
#X obj 218 485 perlin.3d~ 3 0.7;
#X obj 218 402 phasor~ 0.004;
#X obj 218 551 clip~ 0 2;
#X obj 572 425 *~ 256;
#X msg 624 456 0.5;
#X obj 572 484 perlin.3d~ 3 0.7;
#X obj 572 550 clip~ 0 2;
#X obj 918 426 *~ 256;
#X msg 970 456 0.5;
#X obj 918 485 perlin.3d~ 3 0.7;
#X obj 918 551 clip~ 0 2;
#X obj 407 49 phasor~ 0.0011;
#X obj 61 49 phasor~ 0.0012;
#X obj 485 640 phasor~ 0.011;
#X obj 757 403 +~ 26;
#X obj 107 597 *~ 2;
#X obj 105 853 *~ -1;
#X obj 59 403 +~ 62;
#X obj 406 132 perlin.3d~ 4 0.7;
#X obj 759 132 perlin.3d~ 2 0.7;
#X obj 760 48 phasor~ 0.0003;
#X obj 805 597 *~ 2;
#X obj 838 640 phasor~ 0.03;
#X obj 918 402 phasor~ 0.003;
#X obj 572 401 phasor~ 0.005;
#X obj 404 697 perlin.3d~ 12 0.7;
#X obj 757 697 perlin.3d~ 8 0.7;
#X obj 405 180 *~ 8;
#X obj 759 180 *~ 4;
#X obj 867 475 +~ 0.2;
#X obj 58 772 *~ 0.3;
#X obj 404 403 +~ 74;
#X obj 452 597 *~ 1.2;
#X obj 573 587 *~ 2;
#X obj 219 588 *~ 3;
#X obj 919 588 *~ 2.5;
#X msg 867 308 0 1.5 3 5 7 9 10 12;
#X obj 218 527 +~ 0.1;
#X obj 572 526 +~ 0.2;
#X obj 918 527 +~ 0.3;
#X obj 59 697 perlin.3d~ 5 0.4;
#X obj 757 724 *~ 2.2;
#X obj 867 77 loadbang;
#X obj 1027 437 loadbang;
#X obj 80 876 rev3~ 100 95 800 98;
#X obj 597 616 bang~;
#X obj 587 640 snapshot~;
#X obj 587 666 vsl 19 96 0 3 0 0 empty empty empty 0 -9 0 12 #fcfcfc #000000 #000000 0 1;
#X obj 943 615 bang~;
#X obj 933 639 snapshot~;
#X obj 933 665 vsl 19 96 0 3 0 0 empty empty empty 0 -9 0 12 #fcfcfc #000000 #000000 0 1;
#X obj 245 616 bang~;
#X obj 235 640 snapshot~;
#X obj 235 666 vsl 19 96 0 3 0 0 empty empty empty 0 -9 0 12 #fcfcfc #000000 #000000 0 1;
#X obj 758 230 *~;
#X obj 405 230 *~;
#X obj 60 230 *~;
#X obj 1019 42 vsl 19 162 0 1 0 1 empty empty tonal\ range 0 -9 0 12 #c6ffc7 #000000 #000000 0 1;
#X text 761 27 bass;
#X text 410 27 sopran;
#X text 61 27 alt;
#X floatatom 1019 212 5 0 0 0 - - - 0;
#X obj 405 258 +~ 2;
#X connect 0 0 17 0;
#X connect 0 1 16 0;
#X connect 1 0 8 0;
#X connect 3 0 2 0;
#X connect 3 0 2 1;
#X connect 3 0 80 0;
#X connect 3 0 108 0;
#X connect 4 0 3 1;
#X connect 5 0 0 1;
#X connect 5 0 6 0;
#X connect 7 0 104 2;
#X connect 8 0 9 0;
#X connect 8 0 10 0;
#X connect 9 0 13 0;
#X connect 10 0 11 0;
#X connect 11 0 12 0;
#X connect 12 0 79 0;
#X connect 13 0 104 0;
#X connect 14 0 104 1;
#X connect 15 0 7 0;
#X connect 16 0 23 0;
#X connect 17 0 81 0;
#X connect 18 0 21 0;
#X connect 19 0 21 1;
#X connect 19 0 21 2;
#X connect 20 0 120 0;
#X connect 21 0 22 0;
#X connect 22 0 20 0;
#X connect 23 0 24 0;
#X connect 24 0 104 3;
#X connect 25 0 38 0;
#X connect 25 1 37 0;
#X connect 26 0 30 0;
#X connect 27 0 25 1;
#X connect 27 0 28 0;
#X connect 29 0 89 2;
#X connect 30 0 31 0;
#X connect 30 0 32 0;
#X connect 31 0 35 0;
#X connect 32 0 33 0;
#X connect 33 0 34 0;
#X connect 34 0 96 0;
#X connect 35 0 89 0;
#X connect 36 0 89 1;
#X connect 37 0 42 0;
#X connect 38 0 95 0;
#X connect 39 0 82 0;
#X connect 40 0 82 1;
#X connect 40 0 82 2;
#X connect 41 0 91 0;
#X connect 42 0 43 0;
#X connect 43 0 89 3;
#X connect 44 0 57 0;
#X connect 44 1 56 0;
#X connect 45 0 49 0;
#X connect 46 0 44 1;
#X connect 46 0 47 0;
#X connect 48 0 90 2;
#X connect 49 0 50 0;
#X connect 49 0 51 0;
#X connect 50 0 54 0;
#X connect 51 0 52 0;
#X connect 52 0 53 0;
#X connect 53 0 85 0;
#X connect 54 0 90 0;
#X connect 55 0 90 1;
#X connect 56 0 61 0;
#X connect 57 0 78 0;
#X connect 58 0 83 0;
#X connect 59 0 83 1;
#X connect 59 0 83 2;
#X connect 60 0 92 0;
#X connect 61 0 93 0;
#X connect 62 0 64 0;
#X connect 63 0 64 1;
#X connect 63 0 64 2;
#X connect 64 0 101 0;
#X connect 65 0 62 0;
#X connect 66 0 98 0;
#X connect 67 0 69 0;
#X connect 68 0 69 1;
#X connect 68 0 69 2;
#X connect 69 0 102 0;
#X connect 70 0 97 0;
#X connect 71 0 73 0;
#X connect 72 0 73 1;
#X connect 72 0 73 2;
#X connect 73 0 103 0;
#X connect 74 0 99 0;
#X connect 75 0 39 0;
#X connect 76 0 18 0;
#X connect 77 0 29 0;
#X connect 78 0 45 0;
#X connect 79 0 14 0;
#X connect 80 0 108 1;
#X connect 81 0 1 0;
#X connect 82 0 41 0;
#X connect 83 0 60 0;
#X connect 84 0 58 0;
#X connect 85 0 55 0;
#X connect 86 0 48 0;
#X connect 87 0 71 0;
#X connect 88 0 67 0;
#X connect 89 0 94 0;
#X connect 90 0 105 0;
#X connect 91 0 119 0;
#X connect 92 0 118 0;
#X connect 93 0 90 3;
#X connect 94 0 3 0;
#X connect 95 0 26 0;
#X connect 96 0 36 0;
#X connect 97 0 35 1;
#X connect 97 0 36 1;
#X connect 97 0 110 0;
#X connect 98 0 13 1;
#X connect 98 0 14 1;
#X connect 98 0 116 0;
#X connect 99 0 54 1;
#X connect 99 0 55 1;
#X connect 99 0 113 0;
#X connect 100 0 57 1;
#X connect 100 0 38 1;
#X connect 100 0 17 1;
#X connect 101 0 66 0;
#X connect 102 0 70 0;
#X connect 103 0 74 0;
#X connect 104 0 94 0;
#X connect 105 0 94 0;
#X connect 106 0 100 0;
#X connect 106 0 59 0;
#X connect 106 0 40 0;
#X connect 106 0 19 0;
#X connect 107 0 72 0;
#X connect 107 0 63 0;
#X connect 107 0 68 0;
#X connect 108 0 2 0;
#X connect 108 1 2 1;
#X connect 109 0 110 0;
#X connect 110 0 111 0;
#X connect 112 0 113 0;
#X connect 113 0 114 0;
#X connect 115 0 116 0;
#X connect 116 0 117 0;
#X connect 118 0 44 0;
#X connect 119 0 126 0;
#X connect 120 0 0 0;
#X connect 121 0 125 0;
#X connect 125 0 118 1;
#X connect 125 0 120 1;
#X connect 125 0 119 1;
#X connect 126 0 25 0;
