#N canvas 414 131 1203 715 12;
#N canvas 753 64 500 758 create_permutation_table 0;
#X obj 96 378 until;
#X obj 96 347 t f b;
#X msg 140 378 0;
#X obj 96 423 f;
#X obj 126 423 + 1;
#X obj 96 447 t f f;
#X obj 96 479 array set \$0-permutation-table 0 1;
#X obj 73 624 array set \$0-permutation-table 0;
#X obj 128 298 array size \$0-permutation-table;
#X msg 96 226 256;
#X obj 73 576 array get \$0-permutation-table 0 255;
#X obj 96 250 t f f;
#X obj 128 274 * 2;
#X obj 50 692 array set \$0-permutation-table 256;
#X obj 50 668 array get \$0-permutation-table 0 256;
#X obj 50 180 t b b b;
#X obj 50 64 route bang seed;
#X obj 50 39 inlet;
#X text 205 101 set seed and recreate table;
#X text 163 275 double sized table;
#X text 158 423 create range 0..255;
#X text 344 479 write range;
#X text 336 576 shuffle values;
#X text 313 668 duplicate values;
#N canvas 260 260 601 741 shuffle 0;
#X obj 78 386 until;
#X obj 78 494 t f f;
#X msg 128 328 0;
#X obj 78 410 t b b;
#X obj 110 433 f;
#X obj 140 433 + 1;
#X obj 78 578 t b f;
#X msg 78 601 0;
#X obj 110 540 array set \$0-output;
#X obj 55 38 inlet;
#X obj 317 227 array define \$0-source;
#X obj 277 161 list length;
#X obj 317 273 array define \$0-output;
#X msg 277 185 resize \$1;
#X obj 317 250 array define \$0-probabilities;
#X obj 78 363 array size \$0-probabilities;
#X obj 78 471 array random \$0-probabilities;
#X obj 78 624 array set \$0-probabilities;
#X obj 95 184 array set \$0-source;
#X obj 55 662 array get \$0-output;
#X obj 55 686 outlet;
#X obj 110 517 array get \$0-source;
#X obj 55 142 t b b l l;
#X obj 55 309 t b b b;
#X obj 55 62 route list seed;
#X msg 75 239 const 1;
#X obj 75 263 s \$0-probabilities;
#X obj 106 89 list prepend seed;
#X obj 106 113 list trim;
#X connect 0 0 3 0;
#X connect 1 0 6 0;
#X connect 1 1 21 0;
#X connect 2 0 4 1;
#X connect 3 0 16 0;
#X connect 3 1 4 0;
#X connect 4 0 5 0;
#X connect 4 0 8 1;
#X connect 5 0 4 1;
#X connect 6 0 7 0;
#X connect 6 1 17 1;
#X connect 7 0 17 0;
#X connect 9 0 24 0;
#X connect 11 0 13 0;
#X connect 13 0 10 0;
#X connect 13 0 14 0;
#X connect 13 0 12 0;
#X connect 15 0 0 0;
#X connect 16 0 1 0;
#X connect 19 0 20 0;
#X connect 21 0 8 0;
#X connect 22 0 23 0;
#X connect 22 1 25 0;
#X connect 22 2 18 0;
#X connect 22 3 11 0;
#X connect 23 0 19 0;
#X connect 23 1 15 0;
#X connect 23 2 2 0;
#X connect 24 0 22 0;
#X connect 24 1 27 0;
#X connect 25 0 26 0;
#X connect 27 0 28 0;
#X connect 28 0 16 0;
#X restore 73 600 pd shuffle;
#X obj 161 102 t b a;
#X obj 193 516 list prepend seed;
#X obj 193 540 list trim;
#X connect 0 0 3 0;
#X connect 1 0 0 0;
#X connect 1 1 2 0;
#X connect 2 0 3 1;
#X connect 3 0 4 0;
#X connect 3 0 5 0;
#X connect 4 0 3 1;
#X connect 5 0 6 0;
#X connect 5 1 6 1;
#X connect 9 0 11 0;
#X connect 10 0 24 0;
#X connect 11 0 1 0;
#X connect 11 1 12 0;
#X connect 12 0 8 0;
#X connect 14 0 13 0;
#X connect 15 0 14 0;
#X connect 15 1 10 0;
#X connect 15 2 9 0;
#X connect 16 0 15 0;
#X connect 16 1 25 0;
#X connect 17 0 16 0;
#X connect 24 0 7 0;
#X connect 25 0 15 0;
#X connect 25 1 26 0;
#X connect 26 0 27 0;
#X connect 27 0 24 0;
#X restore 732 264 pd create_permutation_table;
#X obj 907 47 array define \$0-permutation-table;
#X text 212 46 y;
#X obj 506 154 loadbang;
#X obj 396 264 \$2;
#X obj 396 288 sel 0;
#X msg 396 312 0.5;
#X text 114 46 x;
#X text 427 263 persistance;
#X obj 529 264 symbol \$3;
#X obj 529 288 sel normalize;
#X msg 529 426 1;
#X obj 60 426 clone \$1 perlin.3d~.cl \$0-permutation-table;
#X obj 60 47 inlet~;
#X obj 158 47 inlet~;
#X obj 657 47 inlet;
#X text 701 46 controls;
#X obj 61 636 outlet~;
#X obj 357 518 expr~ if($v2 \, 1 / $v1 \, 1);
#X obj 506 178 t b b b;
#X obj 60 538 *~;
#X obj 359 47 inlet~;
#X text 411 46 persistance;
#X obj 732 154 list prepend seed;
#X obj 732 178 list trim;
#X obj 657 71 route persistance seed;
#X msg 657 288 \$1 20;
#X obj 657 312 line~;
#X text 931 263 create/reseed;
#X obj 257 47 inlet~;
#X text 311 46 z;
#X connect 3 0 19 0;
#X connect 4 0 5 0;
#X connect 5 0 6 0;
#X connect 5 1 12 3;
#X connect 6 0 12 3;
#X connect 9 0 10 0;
#X connect 10 0 11 0;
#X connect 11 0 18 1;
#X connect 12 0 20 0;
#X connect 12 1 18 0;
#X connect 13 0 12 0;
#X connect 14 0 12 1;
#X connect 15 0 25 0;
#X connect 18 0 20 1;
#X connect 19 0 4 0;
#X connect 19 1 9 0;
#X connect 19 2 0 0;
#X connect 20 0 17 0;
#X connect 21 0 12 3;
#X connect 23 0 24 0;
#X connect 24 0 0 0;
#X connect 25 0 26 0;
#X connect 25 1 23 0;
#X connect 26 0 27 0;
#X connect 27 0 12 3;
#X connect 29 0 12 2;
