#N canvas -10 -2 1920 1037 12;
#X text 301 66 x;
#X text 694 66 y;
#X text 39 967 based on Raouf Touti's explanations and code on https://rtouti.github.io/graphics/perlin-noise-algorithm
, f 62;
#X obj 643 67 inlet~;
#X obj 250 67 inlet~;
#X text 1575 66 persistance;
#X obj 250 171 wrap~;
#X obj 405 172 expr~ $v1 & 255;
#X text 257 94 multiply by octave factor;
#X obj 70 594 perlin.3d~-dotproduct;
#X text 258 151 xf: 0..1;
#X text 410 152 X: int 0..255;
#X obj 642 171 wrap~;
#X obj 822 172 expr~ $v1 & 255;
#X text 650 151 yf: 0..1;
#X text 827 152 Y: int 0..255;
#X obj 642 675 perlin.3d~-ease;
#X obj 672 279 +~ 1;
#X obj 261 300 tabread~ \$2;
#X text 768 677 FIXME: ease with table?;
#X obj 261 323 +~;
#X obj 156 389 tabread~ \$2;
#X obj 353 366 +~ 1;
#X obj 353 389 tabread~ \$2;
#X obj 672 302 tabread~ \$2;
#X obj 353 512 perlin.3d~-getvector \$2;
#X obj 553 389 tabread~ \$2;
#X obj 753 366 +~ 1;
#X obj 753 389 tabread~ \$2;
#X obj 267 594 perlin.3d~-dotproduct;
#X obj 156 512 perlin.3d~-getvector \$2;
#X obj 553 512 perlin.3d~-getvector \$2;
#X obj 753 512 perlin.3d~-getvector \$2;
#X obj 467 594 perlin.3d~-dotproduct;
#X obj 667 594 perlin.3d~-dotproduct;
#X obj 672 205 -~ 1;
#X obj 280 205 -~ 1;
#X obj 430 812 perlin.3d~-lerp;
#X obj 480 721 perlin.3d~-lerp;
#X obj 249 764 perlin.3d~-ease;
#X obj 729 721 perlin.3d~-lerp;
#X obj 804 948 expr~ $v1 * $v2;
#X obj 804 987 outlet~;
#X obj 1522 987 outlet~;
#X text 1584 986 amplitude outlet;
#X obj 1523 144 expr~ pow($v1 \, \$1);
#X obj 1523 67 inlet~;
#X obj 643 115 expr~ $v1 * (1 << \$1);
#X obj 250 115 expr~ $v1 * (1 << \$1);
#X text 34 24 args: count \, permutation table name, f 36;
#X obj 1053 67 inlet~;
#X obj 1052 171 wrap~;
#X obj 1232 172 expr~ $v1 & 255;
#X obj 1082 205 -~ 1;
#X obj 1053 115 expr~ $v1 * (1 << \$1);
#X text 1104 66 z;
#X text 1060 151 zf: 0..1;
#X text 1237 152 Z: int 0..255;
#X text 76 618 bottom-left-front;
#X text 273 618 top-left-front;
#X text 476 618 bottom-right-front;
#X text 672 618 top-right-front;
#X obj 156 413 +~;
#X obj 672 326 +~;
#X obj 353 413 +~;
#X obj 553 413 +~;
#X obj 753 413 +~;
#X obj 863 594 perlin.3d~-dotproduct;
#X obj 1146 512 perlin.3d~-getvector \$2;
#X obj 1060 594 perlin.3d~-dotproduct;
#X obj 949 512 perlin.3d~-getvector \$2;
#X obj 1346 512 perlin.3d~-getvector \$2;
#X obj 1546 512 perlin.3d~-getvector \$2;
#X obj 1260 594 perlin.3d~-dotproduct;
#X obj 1460 594 perlin.3d~-dotproduct;
#X text 869 618 bottom-left-back;
#X text 1066 618 top-left-back;
#X text 1269 618 bottom-right-back;
#X text 1465 618 top-right-back;
#X obj 156 489 tabread~ \$2;
#X obj 353 489 tabread~ \$2;
#X obj 553 489 tabread~ \$2;
#X obj 753 489 tabread~ \$2;
#X obj 949 489 tabread~ \$2;
#X obj 1146 489 tabread~ \$2;
#X obj 1346 489 tabread~ \$2;
#X obj 1546 489 tabread~ \$2;
#X obj 949 466 +~ 1;
#X obj 1146 466 +~ 1;
#X obj 1346 466 +~ 1;
#X obj 1546 466 +~ 1;
#X obj 1053 856 perlin.3d~-ease;
#X obj 958 721 perlin.3d~-lerp;
#X obj 1208 721 perlin.3d~-lerp;
#X obj 906 812 perlin.3d~-lerp;
#X obj 804 908 perlin.3d~-lerp;
#X connect 3 0 47 0;
#X connect 4 0 48 0;
#X connect 6 0 36 0;
#X connect 6 0 9 0;
#X connect 6 0 39 0;
#X connect 6 0 29 0;
#X connect 6 0 67 0;
#X connect 6 0 69 0;
#X connect 7 0 18 0;
#X connect 7 0 17 0;
#X connect 9 0 38 1;
#X connect 12 0 35 0;
#X connect 12 0 9 1;
#X connect 12 0 16 0;
#X connect 12 0 33 1;
#X connect 12 0 67 1;
#X connect 12 0 73 1;
#X connect 13 0 20 1;
#X connect 13 0 63 1;
#X connect 16 0 38 0;
#X connect 16 0 40 0;
#X connect 16 0 92 0;
#X connect 16 0 93 0;
#X connect 17 0 24 0;
#X connect 18 0 20 0;
#X connect 20 0 21 0;
#X connect 20 0 22 0;
#X connect 21 0 62 0;
#X connect 22 0 23 0;
#X connect 23 0 64 0;
#X connect 24 0 63 0;
#X connect 25 0 29 3;
#X connect 25 1 29 4;
#X connect 25 2 29 5;
#X connect 26 0 65 0;
#X connect 27 0 28 0;
#X connect 28 0 66 0;
#X connect 29 0 38 2;
#X connect 30 0 9 3;
#X connect 30 1 9 4;
#X connect 30 2 9 5;
#X connect 31 0 33 3;
#X connect 31 1 33 4;
#X connect 31 2 33 5;
#X connect 32 0 34 3;
#X connect 32 1 34 4;
#X connect 32 2 34 5;
#X connect 33 0 40 1;
#X connect 34 0 40 2;
#X connect 35 0 29 1;
#X connect 35 0 34 1;
#X connect 35 0 69 1;
#X connect 35 0 74 1;
#X connect 36 0 33 0;
#X connect 36 0 34 0;
#X connect 36 0 73 0;
#X connect 36 0 74 0;
#X connect 37 0 95 1;
#X connect 38 0 37 1;
#X connect 39 0 37 0;
#X connect 39 0 94 0;
#X connect 40 0 37 2;
#X connect 41 0 42 0;
#X connect 45 0 43 0;
#X connect 45 0 41 1;
#X connect 46 0 45 0;
#X connect 47 0 12 0;
#X connect 47 0 13 0;
#X connect 48 0 6 0;
#X connect 48 0 7 0;
#X connect 50 0 54 0;
#X connect 51 0 53 0;
#X connect 51 0 9 2;
#X connect 51 0 34 2;
#X connect 51 0 33 2;
#X connect 51 0 29 2;
#X connect 51 0 91 0;
#X connect 52 0 66 1;
#X connect 52 0 65 1;
#X connect 52 0 64 1;
#X connect 52 0 62 1;
#X connect 53 0 67 2;
#X connect 53 0 74 2;
#X connect 53 0 73 2;
#X connect 53 0 69 2;
#X connect 54 0 51 0;
#X connect 54 0 52 0;
#X connect 62 0 79 0;
#X connect 62 0 87 0;
#X connect 63 0 26 0;
#X connect 63 0 27 0;
#X connect 64 0 80 0;
#X connect 64 0 88 0;
#X connect 65 0 81 0;
#X connect 65 0 89 0;
#X connect 66 0 82 0;
#X connect 66 0 90 0;
#X connect 67 0 92 1;
#X connect 68 0 69 3;
#X connect 68 1 69 4;
#X connect 68 2 69 5;
#X connect 69 0 92 2;
#X connect 70 0 67 3;
#X connect 70 1 67 4;
#X connect 70 2 67 5;
#X connect 71 0 73 3;
#X connect 71 1 73 4;
#X connect 71 2 73 5;
#X connect 72 0 74 3;
#X connect 72 1 74 4;
#X connect 72 2 74 5;
#X connect 73 0 93 1;
#X connect 74 0 93 2;
#X connect 79 0 30 0;
#X connect 80 0 25 0;
#X connect 81 0 31 0;
#X connect 82 0 32 0;
#X connect 83 0 70 0;
#X connect 84 0 68 0;
#X connect 85 0 71 0;
#X connect 86 0 72 0;
#X connect 87 0 83 0;
#X connect 88 0 84 0;
#X connect 89 0 85 0;
#X connect 90 0 86 0;
#X connect 91 0 95 0;
#X connect 92 0 94 1;
#X connect 93 0 94 2;
#X connect 94 0 95 2;
#X connect 95 0 41 0;
