#N canvas 508 71 948 901 12;
#X obj 287 468 - 1;
#X obj 602 343 array size \$0-scale;
#X obj 542 294 list length;
#X obj 551 457 array set \$0-scale;
#X obj 204 556 /~;
#X obj 269 667 *~;
#X obj 72 556 /~;
#X obj 72 580 wrap~;
#X obj 72 604 *~;
#X obj 72 767 +~;
#X obj 73 816 outlet~;
#X obj 287 579 array get \$0-scale 0 1;
#X obj 221 580 wrap~;
#X obj 204 604 -~;
#X obj 496 258 t b l l;
#X obj 582 396 array size \$0-scale-smooth;
#X obj 582 372 + 3;
#X obj 519 430 t l l;
#X obj 519 487 array set \$0-scale-smooth 1;
#X obj 496 688 array get \$0-scale 0 1;
#X obj 496 712 array set \$0-scale-smooth 0;
#X obj 496 550 t b b;
#X obj 72 707 tabread4~ \$0-scale-smooth;
#X obj 542 318 t f f f f;
#X obj 603 512 t f f;
#X obj 540 637 array set \$0-scale-smooth;
#X obj 72 683 +~ 1;
#X obj 528 579 array get \$0-scale 0 2;
#X obj 603 535 - 1;
#X obj 528 661 array set \$0-scale-smooth;
#X obj 605 613 + 2;
#X obj 635 613 + 1;
#X obj 706 105 array define \$0-scale 1;
#X obj 657 129 array define \$0-scale-smooth 1;
#X text 498 235 scale input | last note is "octave" interval;
#X obj 72 64 inlet~;
#X obj 90 288 wrap~;
#X obj 73 318 -~;
#X obj 73 372 lop~ 1;
#X obj 314 308 / 1000;
#X obj 314 332 pow -1;
#X obj 282 254 sel 0;
#X obj 331 278 samplerate~;
#X obj 496 816 outlet~;
#X obj 331 254 loadbang;
#X obj 111 129 route list slide portamento glide;
#X obj 282 308 f;
#X text 102 319 signal to int;
#X connect 0 0 11 0;
#X connect 0 0 4 1;
#X connect 0 0 6 1;
#X connect 0 0 8 1;
#X connect 2 0 23 0;
#X connect 4 0 12 0;
#X connect 4 0 13 0;
#X connect 5 0 9 1;
#X connect 6 0 7 0;
#X connect 7 0 8 0;
#X connect 8 0 26 0;
#X connect 9 0 10 0;
#X connect 11 0 5 1;
#X connect 12 0 13 1;
#X connect 13 0 5 0;
#X connect 14 0 21 0;
#X connect 14 1 17 0;
#X connect 14 2 2 0;
#X connect 16 0 15 0;
#X connect 17 0 18 0;
#X connect 17 1 3 0;
#X connect 19 0 20 0;
#X connect 21 0 19 0;
#X connect 21 1 27 0;
#X connect 22 0 9 0;
#X connect 23 0 0 0;
#X connect 23 1 24 0;
#X connect 23 2 16 0;
#X connect 23 3 1 0;
#X connect 24 0 28 0;
#X connect 24 1 30 0;
#X connect 24 1 31 0;
#X connect 26 0 22 0;
#X connect 27 0 25 0;
#X connect 27 0 29 0;
#X connect 28 0 27 0;
#X connect 30 0 29 1;
#X connect 31 0 25 1;
#X connect 35 0 36 0;
#X connect 35 0 37 0;
#X connect 35 1 45 0;
#X connect 36 0 37 1;
#X connect 36 0 43 0;
#X connect 37 0 38 0;
#X connect 38 0 4 0;
#X connect 38 0 6 0;
#X connect 39 0 40 0;
#X connect 40 0 38 1;
#X connect 41 0 46 0;
#X connect 41 1 39 0;
#X connect 42 0 46 0;
#X connect 44 0 42 0;
#X connect 45 0 14 0;
#X connect 45 1 41 0;
#X connect 45 2 41 0;
#X connect 45 3 41 0;
#X connect 46 0 38 1;
