#N canvas 759 109 557 466 12;
#X obj 39 66 t b b b;
#X text 104 42 hardcode gradients to tables;
#X obj 39 42 loadbang;
#X msg 62 224 1 0 \, 1 1 \, -1 2 \, -1 3 \, 0 4 \, 0 5 \, 0 6 \, 0 7 \, 1 8 \, -1 9 \, 1 10 \, -1 11 \, 1 12 \, 1 13 \, -1 14 \, -1 15;
#X msg 39 327 0 0 \, 0 1 \, 0 2 \, 0 3 \, 1 4 \, 1 5 \, -1 6 \, -1 7 \, 1 8 \, 1 9 \, -1 10 \, -1 11 \, 0 12 \, 0 13 \, 1 14 \, -1 15;
#X obj 85 159 unpack f f;
#X obj 62 262 unpack f f;
#X obj 39 365 unpack f f;
#X msg 85 121 1 0 \, -1 1 \, 1 2 \, -1 3 \, 1 4 \, -1 5 \, 1 6 \, -1 7 \, 0 8 \, 0 9 \, 0 10 \, 0 11 \, 1 12 \, -1 13 \, 0 14 \, 0 15;
#X obj 85 183 tabwrite \$1-x;
#X obj 62 286 tabwrite \$1-y;
#X obj 39 389 tabwrite \$1-z;
#X obj 334 40 table \$1-x 16;
#X obj 334 64 table \$1-y 16;
#X obj 334 88 table \$1-z 16;
#X connect 0 0 4 0;
#X connect 0 1 3 0;
#X connect 0 2 8 0;
#X connect 2 0 0 0;
#X connect 3 0 6 0;
#X connect 4 0 7 0;
#X connect 5 0 9 0;
#X connect 5 1 9 1;
#X connect 6 0 10 0;
#X connect 6 1 10 1;
#X connect 7 0 11 0;
#X connect 7 1 11 1;
#X connect 8 0 5 0;
