#N canvas 364 233 764 544 12;
#X obj 213 155 until;
#X obj 243 179 + 1;
#X obj 213 179 f;
#X obj 213 203 t f f;
#X obj 49 453 f;
#X obj 49 380 t b f f;
#X obj 49 286 t b f f;
#X text 221 477 write loop index value to random index value;
#X text 176 311 store loop index value;
#X text 268 429 write random index value to loop index value;
#X obj 49 356 random 256;
#X obj 49 155 until;
#X obj 79 179 + 1;
#X obj 49 179 f;
#X obj 255 405 + 256;
#X msg 213 131 256;
#X msg 49 131 256;
#X obj 209 454 + 256;
#X obj 49 63 bng 19 250 50 0 empty empty empty 0 -10 0 12 #fcfcfc #000000 #000000;
#X obj 49 39 loadbang;
#X text 243 130 create ascending sequence with value = index;
#X text 306 36 creates permutation data with 2x 256 values in array permutation, f 43;
#X obj 141 227 f \$2;
#X msg 141 251 seed \$1;
#X obj 49 87 t b b b;
#X obj 213 251 tabwrite \$1;
#X obj 95 311 tabread \$1;
#X obj 95 404 tabread \$1;
#X obj 95 428 tabwrite \$1;
#X obj 181 428 tabwrite \$1;
#X obj 135 477 tabwrite \$1;
#X obj 49 477 tabwrite \$1;
#X obj 628 38 table \$1 512;
#X connect 0 0 2 0;
#X connect 1 0 2 1;
#X connect 2 0 1 0;
#X connect 2 0 3 0;
#X connect 3 0 25 0;
#X connect 3 1 25 1;
#X connect 4 0 30 0;
#X connect 4 0 31 0;
#X connect 5 0 4 0;
#X connect 5 1 17 0;
#X connect 5 1 31 1;
#X connect 5 2 27 0;
#X connect 6 0 10 0;
#X connect 6 1 14 0;
#X connect 6 1 28 1;
#X connect 6 2 26 0;
#X connect 10 0 5 0;
#X connect 11 0 13 0;
#X connect 12 0 13 1;
#X connect 13 0 12 0;
#X connect 13 0 6 0;
#X connect 14 0 29 1;
#X connect 15 0 0 0;
#X connect 16 0 11 0;
#X connect 17 0 30 1;
#X connect 18 0 24 0;
#X connect 19 0 18 0;
#X connect 22 0 23 0;
#X connect 23 0 10 0;
#X connect 24 0 16 0;
#X connect 24 1 22 0;
#X connect 24 2 15 0;
#X connect 26 0 4 1;
#X connect 27 0 28 0;
#X connect 27 0 29 0;
