#N canvas 0 37 1465 836 12;
#X obj 511 25 inlet~;
#X obj 120 25 inlet~;
#X obj 120 190 wrap~;
#X obj 512 190 wrap~;
#X obj 542 273 +~ 1;
#X obj 131 319 +~;
#X obj 203 382 +~ 1;
#X obj 563 382 +~ 1;
#X obj 595 190 -~ 1;
#X obj 203 190 -~ 1;
#X obj 688 799 outlet~;
#X obj 923 25 inlet~;
#X obj 922 190 wrap~;
#X obj 1005 190 -~ 1;
#X obj 26 428 +~;
#X obj 542 319 +~;
#X obj 203 428 +~;
#X obj 383 428 +~;
#X obj 563 428 +~;
#X obj 739 462 +~ 1;
#X obj 916 462 +~ 1;
#X obj 1096 462 +~ 1;
#X obj 1276 462 +~ 1;
#X text 1117 189 Z;
#X text 706 189 Y;
#X text 314 189 X;
#X text 163 189 x;
#X text 171 24 input x;
#X text 562 24 input y;
#X text 974 24 input z;
#X text 554 189 y;
#X text 965 189 z;
#X text 592 427 BB = p[B+1]+Z;
#X text 412 427 BA = p[B]+Z;
#X text 571 318 B = p[X+1]+Y;
#X text 53 427 AA = p[A]+Z;
#X text 231 427 AB = p[A+1]+Z;
#X text 199 620 u;
#X text 592 682 v;
#X text 1004 739 w;
#X obj 284 143 wrap~;
#X obj 284 167 *~ 256;
#X obj 284 190 -~;
#X obj 676 143 wrap~;
#X obj 1086 143 wrap~;
#X obj 676 167 *~ 256;
#X obj 1086 167 *~ 256;
#X obj 676 190 -~;
#X obj 1086 190 -~;
#X text 1140 189 int in range 0..255;
#X obj 284 119 *~ 0.00390625;
#X obj 676 119 *~ 0.00390625;
#X obj 1086 119 *~ 0.00390625;
#X text 384 118 /~ 256;
#X obj 300 719 lerp;
#X obj 688 774 lerp;
#X obj 887 657 lerp;
#X obj 493 657 lerp;
#X obj 1091 719 lerp;
#X obj 1289 657 lerp;
#X obj 95 657 lerp;
#X obj 163 620 fade;
#X obj 556 683 fade;
#X obj 967 740 fade;
#X text 159 318 A = p[X ]+Y;
#X obj 1184 30 create_permutation \$0-permutation;
#X obj 1212 54 create_gradients \$0-gradients;
#X obj 131 296 tabread~ \$0-permutation;
#X obj 203 405 tabread~ \$0-permutation;
#X obj 26 405 tabread~ \$0-permutation;
#X obj 26 485 tabread~ \$0-permutation;
#X obj 203 485 tabread~ \$0-permutation;
#X obj 383 485 tabread~ \$0-permutation;
#X obj 383 405 tabread~ \$0-permutation;
#X obj 542 296 tabread~ \$0-permutation;
#X obj 563 405 tabread~ \$0-permutation;
#X obj 563 485 tabread~ \$0-permutation;
#X obj 739 485 tabread~ \$0-permutation;
#X obj 916 485 tabread~ \$0-permutation;
#X obj 1096 485 tabread~ \$0-permutation;
#X obj 1276 485 tabread~ \$0-permutation;
#X obj 26 591 grad \$0-gradients;
#X obj 197 591 grad \$0-gradients;
#X obj 395 591 grad \$0-gradients;
#X obj 595 591 grad \$0-gradients;
#X obj 789 591 grad \$0-gradients;
#X obj 989 591 grad \$0-gradients;
#X obj 1191 591 grad \$0-gradients;
#X obj 1391 591 grad \$0-gradients;
#X connect 0 0 51 0;
#X connect 0 0 3 0;
#X connect 1 0 50 0;
#X connect 1 0 2 0;
#X connect 2 0 9 0;
#X connect 2 0 42 1;
#X connect 2 0 61 0;
#X connect 2 0 81 1;
#X connect 2 0 83 1;
#X connect 2 0 85 1;
#X connect 2 0 87 1;
#X connect 3 0 8 0;
#X connect 3 0 47 1;
#X connect 3 0 62 0;
#X connect 3 0 81 2;
#X connect 3 0 82 2;
#X connect 3 0 85 2;
#X connect 3 0 86 2;
#X connect 4 0 74 0;
#X connect 5 0 6 0;
#X connect 5 0 69 0;
#X connect 6 0 68 0;
#X connect 7 0 75 0;
#X connect 8 0 83 2;
#X connect 8 0 84 2;
#X connect 8 0 87 2;
#X connect 8 0 88 2;
#X connect 9 0 82 1;
#X connect 9 0 84 1;
#X connect 9 0 86 1;
#X connect 9 0 88 1;
#X connect 11 0 52 0;
#X connect 11 0 12 0;
#X connect 12 0 13 0;
#X connect 12 0 48 1;
#X connect 12 0 63 0;
#X connect 12 0 81 3;
#X connect 12 0 82 3;
#X connect 12 0 83 3;
#X connect 12 0 84 3;
#X connect 13 0 85 3;
#X connect 13 0 86 3;
#X connect 13 0 87 3;
#X connect 13 0 88 3;
#X connect 14 0 19 0;
#X connect 14 0 70 0;
#X connect 15 0 7 0;
#X connect 15 0 73 0;
#X connect 16 0 20 0;
#X connect 16 0 71 0;
#X connect 17 0 21 0;
#X connect 17 0 72 0;
#X connect 18 0 22 0;
#X connect 18 0 76 0;
#X connect 19 0 77 0;
#X connect 20 0 78 0;
#X connect 21 0 79 0;
#X connect 22 0 80 0;
#X connect 40 0 41 0;
#X connect 41 0 42 0;
#X connect 42 0 4 0;
#X connect 42 0 67 0;
#X connect 43 0 45 0;
#X connect 44 0 46 0;
#X connect 45 0 47 0;
#X connect 46 0 48 0;
#X connect 47 0 5 1;
#X connect 47 0 15 1;
#X connect 48 0 18 1;
#X connect 48 0 17 1;
#X connect 48 0 16 1;
#X connect 48 0 14 1;
#X connect 50 0 40 0;
#X connect 51 0 43 0;
#X connect 52 0 44 0;
#X connect 54 0 55 1;
#X connect 55 0 10 0;
#X connect 56 0 58 1;
#X connect 57 0 54 2;
#X connect 58 0 55 2;
#X connect 59 0 58 2;
#X connect 60 0 54 1;
#X connect 61 0 59 0;
#X connect 61 0 56 0;
#X connect 61 0 60 0;
#X connect 61 0 57 0;
#X connect 62 0 54 0;
#X connect 62 0 58 0;
#X connect 63 0 55 0;
#X connect 67 0 5 0;
#X connect 68 0 16 0;
#X connect 69 0 14 0;
#X connect 70 0 81 0;
#X connect 71 0 83 0;
#X connect 72 0 82 0;
#X connect 73 0 17 0;
#X connect 74 0 15 0;
#X connect 75 0 18 0;
#X connect 76 0 84 0;
#X connect 77 0 85 0;
#X connect 78 0 87 0;
#X connect 79 0 86 0;
#X connect 80 0 88 0;
#X connect 81 0 60 1;
#X connect 82 0 60 2;
#X connect 83 0 57 1;
#X connect 84 0 57 2;
#X connect 85 0 56 1;
#X connect 86 0 56 2;
#X connect 87 0 59 1;
#X connect 88 0 59 2;
